<?xml version="1.0" encoding="UTF-8"?>
<svg version="1.1" xmlns="http://www.w3.org/2000/svg" width="600" height="600">
<path d="M0 0 C198 0 396 0 600 0 C600 198 600 396 600 600 C402 600 204 600 0 600 C0 402 0 204 0 0 Z " fill="#FEFEFE" transform="translate(0,0)"/>
<path d="M0 0 C3.5625 0.4375 3.5625 0.4375 6 2.0625 C8.06200749 5.19675139 8.01663223 6.71984888 7.5625 10.4375 C6.03637108 12.84919696 4.57942825 14.84787541 2.75 17 C2.25588623 17.60424805 1.76177246 18.20849609 1.25268555 18.83105469 C-0.29470253 20.71389395 -1.86281999 22.57745221 -3.4375 24.4375 C-3.9231543 25.0154834 -4.40880859 25.5934668 -4.90917969 26.18896484 C-7.22367691 28.94307396 -9.5503544 31.68630344 -11.88671875 34.421875 C-14.11836903 37.06021194 -16.29238492 39.72880072 -18.4375 42.4375 C-23.29326425 48.5591254 -28.37302202 54.48893994 -33.4375 60.4375 C-35.31414322 62.64444275 -37.18906528 64.85283304 -39.0625 67.0625 C-39.74940918 67.87207153 -39.74940918 67.87207153 -40.45019531 68.69799805 C-43.34437109 72.11815252 -46.18351848 75.57778473 -49 79.0625 C-52.82769624 83.77036168 -56.87148285 88.23677169 -60.98046875 92.69921875 C-63.33126133 95.31910046 -65.55000459 98.00302219 -67.75 100.75 C-72.38171018 106.4923334 -77.38573463 111.838143 -82.4296875 117.21484375 C-85.2822641 120.25811941 -88.0467621 123.36694134 -90.7734375 126.5234375 C-93.51702384 129.67920582 -96.32717561 132.77479658 -99.12890625 135.87890625 C-100.6186928 137.53002333 -102.10586877 139.18350144 -103.58984375 140.83984375 C-109.80227713 147.77125676 -116.10284191 154.61795329 -122.4375 161.4375 C-123.03401367 162.08058105 -123.63052734 162.72366211 -124.24511719 163.38623047 C-131.5708926 171.27567405 -138.95466646 179.06921436 -146.65625 186.59375 C-148.74042013 188.72475541 -150.65449481 190.85186031 -152.57421875 193.12109375 C-155.42410174 196.41929032 -158.46141633 199.37298833 -161.67578125 202.31640625 C-178.4598604 217.82082875 -190.64886306 235.14658974 -202.85462952 254.38400269 C-213.95439965 271.75607369 -226.67421214 288.25868441 -239.4375 304.4375 C-237.90429261 308.21883733 -235.60526728 310.33193552 -232.5625 313 C-231.69882812 313.76441406 -230.83515625 314.52882813 -229.9453125 315.31640625 C-228.70394531 316.36634766 -228.70394531 316.36634766 -227.4375 317.4375 C-226.55191406 318.35982422 -226.55191406 318.35982422 -225.6484375 319.30078125 C-222.05065462 321.15052474 -218.70030385 319.93766605 -214.9375 319.0625 C-214.06585205 318.87405518 -213.1942041 318.68561035 -212.29614258 318.49145508 C-203.67107377 316.58585558 -195.11086073 314.39462988 -186.55175781 312.21508789 C-177.79456905 309.99298346 -169.00758714 307.9562408 -160.1875 306 C-149.56043489 303.63879959 -138.9890282 301.11582904 -128.4375 298.4375 C-117.96829692 295.78012633 -107.48323172 293.27750749 -96.9375 290.9375 C-85.60666502 288.42265474 -74.34486903 285.70934225 -63.09436035 282.86087036 C-53.09443271 280.3300562 -43.07070917 277.9378747 -33.01123047 275.65380859 C-25.22886786 273.87686575 -17.48742764 271.96266986 -9.75 270 C1.67286299 267.10392716 13.13623495 264.44929109 24.64526367 261.92211914 C32.13948246 260.26538648 32.13948246 260.26538648 39.56787109 258.34130859 C40.23272018 258.15674606 40.89756927 257.97218353 41.58256531 257.7820282 C43.4289862 257.26253774 45.27164367 256.72972385 47.11401367 256.19604492 C50.73624154 255.39928301 53.86545004 255.1962354 57.5625 255.4375 C60 257 60 257 61.5625 259.4375 C62.0625 262.9375 62.0625 262.9375 61.5625 266.4375 C58.87402187 269.75984076 56.71766196 271.01304887 52.58203125 271.9296875 C51.59589844 272.1565625 50.60976563 272.3834375 49.59375 272.6171875 C48.5315625 272.84664063 47.469375 273.07609375 46.375 273.3125 C44.10017332 273.83034672 41.82543614 274.34858672 39.55078125 274.8671875 C37.80595459 275.25729004 37.80595459 275.25729004 36.02587891 275.65527344 C30.69118841 276.86014784 25.37784407 278.1504632 20.0625 279.4375 C17.96624327 279.9405104 15.86988887 280.44311393 13.7734375 280.9453125 C9.73571401 281.91411417 5.69933918 282.88824683 1.6640625 283.8671875 C-7.34071405 286.04701813 -16.34894751 288.20270758 -25.38671875 290.2421875 C-26.08067749 290.39888412 -26.77463623 290.55558075 -27.48962402 290.71702576 C-28.19542603 290.87639114 -28.90122803 291.03575653 -29.62841797 291.19995117 C-44.88654269 294.64585254 -60.07405835 298.31020679 -75.23907471 302.14526367 C-88.90933894 305.59870732 -102.61516313 308.7964555 -116.37890625 311.85546875 C-126.08507275 314.01606538 -135.74647734 316.35767338 -145.40917969 318.70361328 C-149.53893296 319.70442256 -153.67098118 320.69555699 -157.80322266 321.68603516 C-159.87860626 322.18362284 -161.95380446 322.68198455 -164.02880859 323.18115234 C-169.43300781 324.48085331 -174.83951095 325.76968595 -180.25 327.04296875 C-181.36955078 327.30787109 -182.48910156 327.57277344 -183.64257812 327.84570312 C-185.77069917 328.34903466 -187.89955895 328.84925758 -190.02929688 329.34570312 C-195.9505544 330.75028049 -201.70398928 332.39480259 -207.4375 334.4375 C-197.45012087 343.98417847 -197.45012087 343.98417847 -186.9375 352.9375 C-180.95407579 357.71350677 -175.44974279 362.96029415 -169.8828125 368.20703125 C-166.75974078 371.14782579 -163.57477908 374.00149177 -160.32421875 376.80078125 C-158.00091213 378.81623772 -155.72001535 380.87598462 -153.4375 382.9375 C-150.45687279 385.62733431 -147.46504767 388.30060364 -144.4375 390.9375 C-140.54237189 394.33003093 -136.70967237 397.78944201 -132.875 401.25 C-130.74332519 403.16304149 -128.5973089 405.05637612 -126.4375 406.9375 C-122.54237189 410.33003093 -118.70967237 413.78944201 -114.875 417.25 C-112.74332519 419.16304149 -110.5973089 421.05637612 -108.4375 422.9375 C-104.54237189 426.33003093 -100.70967237 429.78944201 -96.875 433.25 C-94.74332519 435.16304149 -92.5973089 437.05637612 -90.4375 438.9375 C-86.54237189 442.33003093 -82.70967237 445.78944201 -78.875 449.25 C-76.74332519 451.16304149 -74.5973089 453.05637612 -72.4375 454.9375 C-68.54237189 458.33003093 -64.70967237 461.78944201 -60.875 465.25 C-58.74332519 467.16304149 -56.5973089 469.05637612 -54.4375 470.9375 C-51.40995233 473.57439636 -48.41812721 476.24766569 -45.4375 478.9375 C-40.11415307 483.73657792 -34.74886661 488.4782795 -29.28515625 493.1171875 C-22.76824357 498.65807543 -16.38074015 504.29046477 -10.13549805 510.13623047 C-5.86673084 514.10592874 -1.397948 517.77688108 3.1484375 521.42578125 C5.25166189 523.17846825 7.16308933 524.97057474 9.0625 526.9375 C11.73291844 529.70239079 14.55845992 532.10118565 17.5625 534.5 C23.02320912 538.89116333 28.11575977 543.60868414 33.21362305 548.41308594 C36.96846635 551.95170189 40.75657619 555.42695555 44.66796875 558.79296875 C47.90127994 561.5996162 51.05955323 564.48970418 54.22265625 567.375 C56.1361281 569.06166634 58.06817788 570.56304215 60.125 572.0625 C62.5625 574.4375 62.5625 574.4375 63.6875 577.9375 C63.5625 581.4375 63.5625 581.4375 62.0625 584.375 C59.5625 586.4375 59.5625 586.4375 56.30859375 586.9140625 C51.35863482 586.28434927 49.50524239 584.34975152 46.125 580.875 C44.98505095 579.76232789 43.84442884 578.65034491 42.703125 577.5390625 C42.16107422 577.00055664 41.61902344 576.46205078 41.06054688 575.90722656 C39.2290781 574.11038138 37.32220583 572.42016435 35.375 570.75 C32.45894231 568.23047735 29.59934553 565.65728018 26.75 563.0625 C23.37309018 560.00891133 19.93032868 557.09320795 16.375 554.25 C11.04110593 549.94214496 6.08734514 545.29890135 1.1105957 540.59106445 C-2.46788044 537.22338086 -6.09287524 534.00404594 -9.9375 530.9375 C-15.92092421 526.16149323 -21.42525721 520.91470585 -26.9921875 515.66796875 C-30.11525922 512.72717421 -33.30022092 509.87350823 -36.55078125 507.07421875 C-38.87408787 505.05876228 -41.15498465 502.99901538 -43.4375 500.9375 C-47.05773723 497.67045665 -50.70733565 494.44229224 -54.38671875 491.2421875 C-56.69838797 489.20791859 -58.9728143 487.1352769 -61.25 485.0625 C-64.62690982 482.00891133 -68.06967132 479.09320795 -71.625 476.25 C-77.69070218 471.34746514 -83.31914977 466.01491963 -88.9921875 460.66796875 C-92.11525922 457.72717421 -95.30022092 454.87350823 -98.55078125 452.07421875 C-100.87408787 450.05876228 -103.15498465 447.99901538 -105.4375 445.9375 C-110.76084693 441.13842208 -116.12613339 436.3967205 -121.58984375 431.7578125 C-128.17068179 426.16308261 -134.63515898 420.48014888 -140.95703125 414.59375 C-144.41119374 411.37780561 -147.91185592 408.23232045 -151.48046875 405.14453125 C-153.8230915 403.10116569 -156.13023422 401.02069141 -158.4375 398.9375 C-161.41812721 396.24766569 -164.40995233 393.57439636 -167.4375 390.9375 C-170.46504767 388.30060364 -173.45687279 385.62733431 -176.4375 382.9375 C-181.76084693 378.13842208 -187.12613339 373.3967205 -192.58984375 368.7578125 C-199.16389589 363.16885167 -205.62347963 357.49343371 -211.93725586 351.61132812 C-215.58110698 348.21727311 -219.27796438 344.89877971 -223.046875 341.64453125 C-223.86591966 340.93361889 -224.67061326 340.20438674 -225.4375 339.4375 C-231.85524389 339.91898918 -237.89419319 341.12441867 -244.125 342.6875 C-249.90884544 344.11519109 -255.68948939 345.51026507 -261.51953125 346.73828125 C-263.0041687 347.05587402 -263.0041687 347.05587402 -264.51879883 347.37988281 C-266.4239078 347.78464875 -268.33126399 348.17901743 -270.2409668 348.56152344 C-277.00941521 350.01947822 -280.96297183 352.41051537 -285.375 357.8125 C-292.62078968 366.28181119 -300.69990304 374.35947221 -309.21484375 381.5546875 C-311.06349828 383.12068307 -312.88053459 384.71121928 -314.69140625 386.3203125 C-341.74769161 410.26207548 -372.40925658 430.69408941 -407.375 440.875 C-408.17784424 441.10993164 -408.98068848 441.34486328 -409.80786133 441.58691406 C-441.5392574 450.27692009 -475.62413887 446.69736758 -504.40625 430.89453125 C-507.46367311 428.70141813 -509.22153862 426.67156505 -509.875 422.9375 C-509.4375 420.4375 -509.4375 420.4375 -507.875 418.125 C-504.51366745 415.79792362 -502.48657536 416.11290814 -498.4375 416.4375 C-495.90755474 417.41293445 -493.5996789 418.42384091 -491.1875 419.625 C-478.72340449 425.43153098 -465.23393369 429.18995633 -451.4375 429.4375 C-450.72013672 429.46183105 -450.00277344 429.48616211 -449.26367188 429.51123047 C-397.89799983 431.19073356 -353.60283047 400.98001749 -317.41015625 367.19140625 C-314.16872552 364.17161181 -310.83432256 361.28135145 -307.4375 358.4375 C-315.05821011 359.7377336 -322.55553622 361.34597617 -330.0625 363.1875 C-332.29166336 363.72787824 -334.52083011 364.26824246 -336.75 364.80859375 C-338.97918731 365.35147773 -341.20835467 365.89444366 -343.4375 366.4375 C-347.31164522 367.37856463 -351.18665424 368.31596408 -355.0625 369.25 C-356.06450439 369.49161865 -357.06650879 369.7332373 -358.09887695 369.98217773 C-364.53044345 371.52447866 -370.97061751 373.02540944 -377.41796875 374.5 C-378.21111481 374.68147079 -379.00426086 374.86294159 -379.82144165 375.0499115 C-380.62802216 375.23445389 -381.43460266 375.41899628 -382.265625 375.60913086 C-400.772227 379.84408195 -419.20190649 384.3272593 -437.60882568 388.97485352 C-445.68097593 391.00926056 -453.7789309 392.92884403 -461.88232422 394.83398438 C-465.7611614 395.75014007 -469.63643831 396.6809906 -473.51171875 397.61206055 C-475.61433003 398.11718511 -477.71719162 398.62126898 -479.8203125 399.12426758 C-485.34254022 400.4462321 -490.8596055 401.78624837 -496.37109375 403.15234375 C-497.50192383 403.43021729 -498.63275391 403.70809082 -499.79785156 403.99438477 C-501.96395564 404.52700986 -504.12875327 405.06498589 -506.29199219 405.60913086 C-515.95950013 407.97514295 -515.95950013 407.97514295 -520.4375 407.4375 C-523.80094489 404.95147551 -525.23807749 403.52324477 -526 399.375 C-525.29681113 395.70279146 -524.31527324 394.78168551 -521.4375 392.4375 C-518.37915039 391.32836914 -518.37915039 391.32836914 -514.78515625 390.47265625 C-514.13791595 390.31437347 -513.49067566 390.1560907 -512.82382202 389.99301147 C-510.71889698 389.48171182 -508.60981235 388.99070318 -506.5 388.5 C-505.03168512 388.14780292 -503.56366871 387.79435928 -502.09594727 387.43969727 C-498.50861153 386.57586843 -494.91783554 385.72748452 -491.32580566 384.88342285 C-488.79500186 384.28577424 -486.26838283 383.67149473 -483.7421875 383.0546875 C-468.35540683 379.31293652 -452.88873115 375.90130238 -437.4375 372.4375 C-438.36836426 372.30690186 -439.29922852 372.17630371 -440.25830078 372.04174805 C-441.49563965 371.86683838 -442.73297852 371.69192871 -444.0078125 371.51171875 C-445.22742676 371.33987061 -446.44704102 371.16802246 -447.70361328 370.9909668 C-471.13379768 367.51795594 -488.49980268 357.7711425 -505.4375 341.4375 C-506.14519531 340.79296875 -506.85289062 340.1484375 -507.58203125 339.484375 C-513.70083877 333.75188731 -518.45048915 326.96734531 -523.24560547 320.12890625 C-524.2397336 318.71814843 -525.25939256 317.32542551 -526.28515625 315.9375 C-528.60554348 312.62820123 -529.4375 310.71372349 -529.4375 306.625 C-527.94147456 301.85641892 -527.94147456 301.85641892 -525.4375 300.4375 C-522.125 299.8125 -522.125 299.8125 -518.4375 300.4375 C-514.71252779 303.91953924 -512.13518885 307.8696375 -509.26953125 312.07226562 C-508.89183594 312.62591797 -508.51414062 313.17957031 -508.125 313.75 C-507.74085938 314.31396484 -507.35671875 314.87792969 -506.9609375 315.45898438 C-503.2218583 320.88127033 -499.05497417 325.7357933 -494.4375 330.4375 C-493.62925781 331.27023437 -492.82101562 332.10296875 -491.98828125 332.9609375 C-475.31711897 349.1586288 -454.76748386 355.84940726 -431.875 355.75 C-431.2117572 355.74817719 -430.5485144 355.74635437 -429.86517334 355.74447632 C-419.42437577 355.69619026 -409.55557934 355.06585007 -399.4375 352.4375 C-398.20644531 352.12039063 -396.97539062 351.80328125 -395.70703125 351.4765625 C-351.48472067 338.76433866 -312.37893402 312.37830238 -276.4375 284.4375 C-275.81214355 283.95394043 -275.18678711 283.47038086 -274.54248047 282.97216797 C-266.55841744 276.79694423 -258.76234514 270.43704391 -251.10253906 263.86425781 C-249.37187675 262.38126799 -247.63563006 260.90502034 -245.8984375 259.4296875 C-239.54164204 254.0207897 -233.27216968 248.54242882 -227.1328125 242.88671875 C-224.98210505 240.93238024 -222.81040537 239.01520755 -220.6171875 237.109375 C-214.31668478 231.61179046 -208.26963221 225.84709051 -202.20507812 220.09228516 C-200.84467868 218.81869573 -199.45215982 217.57935243 -198.046875 216.35546875 C-190.45548341 209.54554394 -185.67078636 200.06572911 -180.4375 191.4375 C-179.33172164 189.63610915 -178.22493947 187.83533412 -177.1171875 186.03515625 C-173.52755134 180.18711583 -169.97588759 174.31666707 -166.4375 168.4375 C-165.7976416 167.37466797 -165.1577832 166.31183594 -164.49853516 165.21679688 C-155.02516748 149.44421235 -145.92409003 133.51334934 -137.06396484 117.390625 C-135.24075909 114.08028324 -133.39886862 110.78077053 -131.55322266 107.48291016 C-120.89937544 88.42254612 -110.70029471 69.12207535 -100.6875 49.71875 C-97.49937381 43.54361774 -94.25644304 37.39865524 -90.9987793 31.26000977 C-88.84392866 27.17828998 -86.74904465 23.07304355 -84.70703125 18.93359375 C-84.25424805 18.01634521 -83.80146484 17.09909668 -83.33496094 16.15405273 C-82.46653629 14.38686892 -81.60360128 12.61697319 -80.74707031 10.84399414 C-80.35745117 10.04985107 -79.96783203 9.25570801 -79.56640625 8.4375 C-79.22681885 7.73625 -78.88723145 7.035 -78.53735352 6.3125 C-77.37223218 4.32623322 -76.18231393 2.9349769 -74.4375 1.4375 C-71.71199733 0.82755888 -69.17930997 0.93483484 -66.4375 1.4375 C-64.4375 3 -64.4375 3 -63.4375 5.4375 C-63.00256094 10.94783689 -63.94268747 14.2595967 -66.5234375 19.109375 C-66.85178085 19.73674057 -67.18012421 20.36410614 -67.51841736 21.01048279 C-68.60340133 23.07667185 -69.70788114 25.13175145 -70.8125 27.1875 C-71.5824842 28.64544329 -72.35092957 30.1042002 -73.11791992 31.5637207 C-74.72970952 34.6288215 -76.34778395 37.69049068 -77.96923828 40.75048828 C-80.40193194 45.35462665 -82.78463335 49.98326312 -85.15234375 54.62109375 C-85.72552589 55.74371109 -85.72552589 55.74371109 -86.31028748 56.88900757 C-87.0758565 58.38874765 -87.84137501 59.88851352 -88.60684204 61.38830566 C-95.1853041 74.25967545 -101.88891758 87.04964728 -108.90966797 99.68652344 C-110.59294774 102.71739536 -112.2672466 105.75314402 -113.94140625 108.7890625 C-122.9506675 125.09554101 -132.15612073 141.28484372 -141.4375 157.4375 C-134.81608535 152.18664333 -129.1178338 146.30286537 -123.6171875 139.90234375 C-120.62406663 136.51764972 -117.52922601 133.23200841 -114.4375 129.9375 C-110.24088281 125.46154565 -106.07865744 120.97420927 -102.07421875 116.32421875 C-100.05876228 114.00091213 -97.99901538 111.72001535 -95.9375 109.4375 C-89.6020691 102.40996321 -83.41794059 95.26064098 -77.26904297 88.07006836 C-74.00227908 84.25277741 -70.71597243 80.45335197 -67.41650391 76.66430664 C-62.44761485 70.95656286 -57.57457689 65.19506558 -52.8125 59.3125 C-49.91253476 55.80201576 -46.92971027 52.36936273 -43.9375 48.9375 C-38.648662 42.86549548 -33.49652534 36.70303631 -28.4375 30.4375 C-26.27223961 27.76969057 -24.10470572 25.10372925 -21.9375 22.4375 C-20.82548474 21.06903975 -19.713505 19.70055063 -18.6015625 18.33203125 C-18.06692383 17.67412598 -17.53228516 17.0162207 -16.98144531 16.33837891 C-15.99587103 15.12495681 -15.01079386 13.91113066 -14.02636719 12.69677734 C-12.78991272 11.17163325 -11.55128014 9.64825571 -10.3125 8.125 C-9.62929688 7.28324219 -8.94609375 6.44148437 -8.2421875 5.57421875 C-3.95982692 0.50397797 -3.95982692 0.50397797 0 0 Z " fill="#FEA58D" transform="translate(534.4375,8.5625)"/>
<path d="M0 0 C0 3.68022123 -0.96776965 4.81258305 -3.0078125 7.83984375 C-3.65806396 8.81099121 -4.30831543 9.78213867 -4.97827148 10.78271484 C-5.68669189 11.82379395 -6.3951123 12.86487305 -7.125 13.9375 C-7.84695557 15.00693848 -8.56891113 16.07637695 -9.31274414 17.17822266 C-11.53317662 20.45819156 -13.76528751 23.7297497 -16 27 C-16.98347412 28.44802002 -16.98347412 28.44802002 -17.98681641 29.92529297 C-30.57358548 48.4271557 -44.51044695 62.96198256 -62.22363281 76.62207031 C-63.93793308 77.95185463 -65.63914258 79.29641367 -67.3359375 80.6484375 C-93.65554341 101.60228468 -121.48547801 120.85646102 -151.484375 136.171875 C-154.74213013 137.641753 -154.74213013 137.641753 -156 139 C-154.4382605 138.63032104 -154.4382605 138.63032104 -152.8449707 138.25317383 C-152.15128891 138.08897446 -151.45760712 137.92477509 -150.74290466 137.75559998 C-149.17498214 137.38440125 -147.60708114 137.01311165 -146.03919983 136.64173889 C-141.71288949 135.61706062 -137.38628181 134.59367007 -133.05908203 133.57275391 C-121.98925963 130.95887659 -121.98925963 130.95887659 -110.94140625 128.25390625 C-109.97485107 128.01502686 -109.0082959 127.77614746 -108.01245117 127.5300293 C-106.30364314 127.10563497 -104.59662079 126.67395761 -102.8918457 126.23364258 C-99.18955746 125.31945257 -96.64479095 124.88416568 -93 126 C-93.80824219 126.79664063 -94.61648437 127.59328125 -95.44921875 128.4140625 C-96.52878171 129.48423795 -97.60820113 130.55455821 -98.6875 131.625 C-99.21794922 132.14707031 -99.74839844 132.66914063 -100.29492188 133.20703125 C-102.88240641 135.77864164 -105.23765264 138.29392057 -107.39453125 141.23828125 C-110.59870394 144.63460823 -113.59365978 145.5509953 -118 146.5625 C-118.78689209 146.76174072 -119.57378418 146.96098145 -120.38452148 147.16625977 C-122.91793411 147.80079444 -125.45769033 148.40220715 -128 149 C-129.65779237 149.40265783 -131.31534545 149.80630215 -132.97265625 150.2109375 C-136.46132982 151.05588761 -139.95367401 151.88317364 -143.44921875 152.69921875 C-147.14314819 153.5615919 -150.83295858 154.43872889 -154.51953125 155.33203125 C-163.9999994 157.62891207 -173.486819 159.89172982 -182.99609375 162.06640625 C-183.78825287 162.24763031 -184.58041199 162.42885437 -185.39657593 162.61557007 C-186.20188751 162.79979523 -187.0071991 162.98402039 -187.83691406 163.17382812 C-206.34073405 167.40738978 -224.76734423 171.89050106 -243.17132568 176.53735352 C-251.24347593 178.57176056 -259.3414309 180.49134403 -267.44482422 182.39648438 C-271.3236614 183.31264007 -275.19893831 184.2434906 -279.07421875 185.17456055 C-281.17683003 185.67968511 -283.27969162 186.18376898 -285.3828125 186.68676758 C-290.90504022 188.0087321 -296.4221055 189.34874837 -301.93359375 190.71484375 C-303.06442383 190.99271729 -304.19525391 191.27059082 -305.36035156 191.55688477 C-307.52645564 192.08950986 -309.69125327 192.62748589 -311.85449219 193.17163086 C-321.52200013 195.53764295 -321.52200013 195.53764295 -326 195 C-329.36344489 192.51397551 -330.80057749 191.08574477 -331.5625 186.9375 C-330.85931113 183.26529146 -329.87777324 182.34418551 -327 180 C-323.94165039 178.89086914 -323.94165039 178.89086914 -320.34765625 178.03515625 C-319.70041595 177.87687347 -319.05317566 177.7185907 -318.38632202 177.55551147 C-316.28139698 177.04421182 -314.17231235 176.55320318 -312.0625 176.0625 C-310.59418512 175.71030292 -309.12616871 175.35685928 -307.65844727 175.00219727 C-304.07111153 174.13836843 -300.48033554 173.28998452 -296.88830566 172.44592285 C-294.35750186 171.84827424 -291.83088283 171.23399473 -289.3046875 170.6171875 C-273.91790683 166.87543652 -258.45123115 163.46380238 -243 160 C-243.93086426 159.86940186 -244.86172852 159.73880371 -245.82080078 159.60424805 C-247.05813965 159.42933838 -248.29547852 159.25442871 -249.5703125 159.07421875 C-250.78992676 158.90237061 -252.00954102 158.73052246 -253.26611328 158.5534668 C-276.69629768 155.08045594 -294.06230268 145.3336425 -311 129 C-311.70769531 128.35546875 -312.41539062 127.7109375 -313.14453125 127.046875 C-319.26333877 121.31438731 -324.01298915 114.52984531 -328.80810547 107.69140625 C-329.8022336 106.28064843 -330.82189256 104.88792551 -331.84765625 103.5 C-334.16804348 100.19070123 -335 98.27622349 -335 94.1875 C-333.50397456 89.41891892 -333.50397456 89.41891892 -331 88 C-327.6875 87.375 -327.6875 87.375 -324 88 C-320.27502779 91.48203924 -317.69768885 95.4321375 -314.83203125 99.63476562 C-314.45433594 100.18841797 -314.07664062 100.74207031 -313.6875 101.3125 C-313.30335938 101.87646484 -312.91921875 102.44042969 -312.5234375 103.02148438 C-308.7843583 108.44377033 -304.61747417 113.2982933 -300 118 C-298.78763672 119.24910156 -298.78763672 119.24910156 -297.55078125 120.5234375 C-280.87961897 136.7211288 -260.32998386 143.41190726 -237.4375 143.3125 C-236.7742572 143.31067719 -236.1110144 143.30885437 -235.42767334 143.30697632 C-224.98687577 143.25869026 -215.11807934 142.62835007 -205 140 C-203.76894531 139.68289063 -202.53789062 139.36578125 -201.26953125 139.0390625 C-157.04722067 126.32683866 -117.94143402 99.94080238 -82 72 C-81.37464355 71.51644043 -80.74928711 71.03288086 -80.10498047 70.53466797 C-72.12091744 64.35944423 -64.32484514 57.99954391 -56.66503906 51.42675781 C-54.93437675 49.94376799 -53.19813006 48.46752034 -51.4609375 46.9921875 C-45.10414204 41.5832897 -38.83466968 36.10492882 -32.6953125 30.44921875 C-30.54728548 28.49731593 -28.3782189 26.58285783 -26.1875 24.6796875 C-21.9962844 21.02283958 -17.92499286 17.2494875 -13.875 13.4375 C-13.19824219 12.80392578 -12.52148438 12.17035156 -11.82421875 11.51757812 C-7.80941279 7.74738801 -3.87325795 3.91548974 0 0 Z " fill="#FE3434" transform="translate(340,221)"/>
<path d="M0 0 C3.74499622 3.65647812 7.22786855 7.45723271 10.625 11.4375 C11.1398999 12.03860596 11.6547998 12.63971191 12.18530273 13.2590332 C16.40582589 18.22280124 20.4588892 23.30669886 24.43408203 28.46850586 C26.13701953 30.6731614 27.78107513 32.79381429 29.8125 34.70703125 C31 36 31 36 30.9375 39 C30.53243378 41.2207443 29.96192756 43.08698084 29.05487061 45.15925598 C25.17005182 54.03592028 25.39535655 62.63338657 25.390625 72.13671875 C25.37561789 73.86979193 25.3588855 75.60285094 25.34051514 77.33589172 C25.29711303 81.86165074 25.27690328 86.38721693 25.26177979 90.91314697 C25.24211004 95.5457283 25.20015162 100.17810433 25.16015625 104.81054688 C25.08514875 113.87363416 25.03467969 122.93667485 25 132 C23.68 132 22.36 132 21 132 C20.67 111.54 20.34 91.08 20 70 C17.525 76.93 17.525 76.93 15 84 C14.67 84 14.34 84 14 84 C13.13720627 79.57244549 12.2830253 75.14334475 11.43652344 70.71264648 C11.14782667 69.20796795 10.85684788 67.70372529 10.56347656 66.19995117 C10.14035999 64.0289602 9.72568069 61.85649486 9.3125 59.68359375 C9.18125732 59.01976181 9.05001465 58.35592987 8.91479492 57.67198181 C8.11247132 53.39645394 7.88197313 49.34486425 8 45 C7.35520187 45.11275269 6.71040375 45.22550537 6.04606628 45.3416748 C-0.652763 46.51255666 -7.35219911 47.67991685 -14.05200195 48.84521484 C-16.55378777 49.2808306 -19.05541637 49.71735031 -21.55688477 50.15478516 C-25.14819241 50.78264112 -28.74004912 51.40726593 -32.33203125 52.03125 C-33.45398392 52.22811401 -34.57593658 52.42497803 -35.73188782 52.62780762 C-36.77274033 52.80799438 -37.81359283 52.98818115 -38.88598633 53.17382812 C-39.80309891 53.33371216 -40.72021149 53.49359619 -41.66511536 53.6583252 C-44 54 -44 54 -47 54 C-47.0928125 55.299375 -47.0928125 55.299375 -47.1875 56.625 C-48.24226728 61.00634099 -49.90782641 62.75698868 -53 66 C-53.99 66.495 -53.99 66.495 -55 67 C-56.8481603 81.32410732 -56.8481603 81.32410732 -53.0546875 94.57421875 C-50.50917826 97.05356032 -47.95544611 99.03394892 -45 101 C-43.64933318 102.14655485 -42.31447396 103.31212497 -41 104.5 C-40.360625 105.0465625 -39.72125 105.593125 -39.0625 106.15625 C-35.7130038 109.1504966 -32.60710016 112.38451962 -29.453125 115.58203125 C-26.74401129 118.25232008 -23.9234502 120.72433623 -20.984375 123.13671875 C-18.0855573 125.85864009 -15.58782669 128.98086886 -13 132 C-46.66 132 -80.32 132 -115 132 C-115 124.41 -115 116.82 -115 109 C-111.7 109 -108.4 109 -105 109 C-105.0825 108.113125 -105.165 107.22625 -105.25 106.3125 C-104.94582898 102.28223402 -103.5887914 100.99137904 -101 98 C-104.32395104 93.65939583 -107.65888004 89.32740022 -111 85 C-111.50192871 84.34870117 -112.00385742 83.69740234 -112.52099609 83.02636719 C-114.00981996 81.09763098 -115.50414101 79.17328301 -117 77.25 C-117.46833252 76.6420459 -117.93666504 76.0340918 -118.41918945 75.40771484 C-120.79721371 72.23230142 -120.79721371 72.23230142 -124 70 C-124.268125 70.61875 -124.53625 71.2375 -124.8125 71.875 C-126 74 -126 74 -129 76 C-132.36928943 76.49111676 -135.62867974 76.47460334 -139 76 C-139.825 75.319375 -140.65 74.63875 -141.5 73.9375 C-144.56953767 71.55860831 -145.55180244 71.85552124 -149.3125 72.25 C-150.859375 72.4975 -152.40625 72.745 -154 73 C-154.33 69.37 -154.66 65.74 -155 62 C-150.05 61.505 -150.05 61.505 -145 61 C-144.67 59.68 -144.34 58.36 -144 57 C-141.74581238 54.38223373 -140.03433569 53.15230509 -136.5859375 52.64453125 C-129.61009414 52.42846531 -129.61009414 52.42846531 -127.32739258 54.56689453 C-123.96354062 56.63820587 -121.08966865 55.9410203 -117.359375 55.36328125 C-116.6129071 55.26074539 -115.86643921 55.15820953 -115.09735107 55.05256653 C-112.72837225 54.7206998 -110.36447118 54.36247847 -108 54 C-106.50197145 53.78031119 -105.00392491 53.56074505 -103.50585938 53.34130859 C-99.81833717 52.78945833 -96.14119325 52.18769592 -92.46582031 51.56030273 C-90.9685671 51.30839598 -89.46978193 51.06545518 -87.96972656 50.83081055 C-85.75214126 50.48350946 -83.54038292 50.11006172 -81.328125 49.73046875 C-80.0380957 49.51801514 -78.74806641 49.30556152 -77.41894531 49.08666992 C-73.41682879 47.81464617 -71.71182145 46.14963579 -69 43 C-67 41 -67 41 -64.28515625 40.734375 C-63.22167969 40.73953125 -62.15820312 40.7446875 -61.0625 40.75 C-60.00160156 40.74484375 -58.94070313 40.7396875 -57.84765625 40.734375 C-55 41 -55 41 -52 43 C-46.01911109 43.75952025 -40.05050337 42.67440211 -34.1953125 41.50390625 C-33.39068573 41.35090561 -32.58605896 41.19790497 -31.75704956 41.04026794 C-29.21146839 40.55544014 -26.66814309 40.05994518 -24.125 39.5625 C-3.19883367 35.49607903 -3.19883367 35.49607903 6 35 C5.72736328 33.88818359 5.72736328 33.88818359 5.44921875 32.75390625 C3.88418768 26.19682735 2.50262378 19.63459808 1.3125 13 C1.18125732 12.28271729 1.05001465 11.56543457 0.91479492 10.82641602 C0.27503567 7.17708504 -0.15201362 3.70623691 0 0 Z " fill="#8E55FF" transform="translate(553,296)"/>
<path d="M0 0 C3.03515625 1.765625 3.03515625 1.765625 6.0625 4.25 C6.61341309 4.69529053 7.16432617 5.14058105 7.73193359 5.59936523 C9.50636217 7.04555702 11.25541072 8.51798554 13 10 C13.88196045 10.74564209 13.88196045 10.74564209 14.78173828 11.50634766 C17.75571498 14.02792188 20.71158132 16.56928853 23.65625 19.125 C26.59567083 21.66847145 29.59630604 24.1256198 32.625 26.5625 C37.59655763 30.59685678 42.29777522 34.86478084 46.98046875 39.2265625 C49.24706776 41.32956084 51.56060477 43.37046068 53.89453125 45.3984375 C57.84890588 48.84430566 61.68661251 52.39943696 65.5 56 C66.89834346 57.31650614 68.29678384 58.63290935 69.6953125 59.94921875 C70.40461914 60.61743652 71.11392578 61.2856543 71.84472656 61.97412109 C73.97219813 63.97386725 76.10597573 65.96662755 78.2421875 67.95703125 C84.89188097 74.1575897 91.45178756 80.40455841 97.84375 86.87109375 C100.44942442 89.4437252 103.16646195 91.8477997 105.9453125 94.23046875 C108.28566803 96.24602209 110.5813701 98.30644593 112.875 100.375 C114.13570312 101.51195312 114.13570312 101.51195312 115.421875 102.671875 C117.140625 104.22395833 118.859375 105.77604167 120.578125 107.328125 C125.00467656 111.32016843 129.45159777 115.28355397 133.94921875 119.1953125 C136.26088797 121.22958141 138.5353143 123.3022231 140.8125 125.375 C144.18940982 128.42858867 147.63217132 131.34429205 151.1875 134.1875 C157.25320218 139.09003486 162.88164977 144.42258037 168.5546875 149.76953125 C171.67775922 152.71032579 174.86272092 155.56399177 178.11328125 158.36328125 C180.43658787 160.37873772 182.71748465 162.43848462 185 164.5 C187.98062721 167.18983431 190.97245233 169.86310364 194 172.5 C197.89512811 175.89253093 201.72782763 179.35194201 205.5625 182.8125 C207.69417481 184.72554149 209.8401911 186.61887612 212 188.5 C215.89512811 191.89253093 219.72782763 195.35194201 223.5625 198.8125 C225.69417481 200.72554149 227.8401911 202.61887612 230 204.5 C242.01749626 214.97553646 242.01749626 214.97553646 247 220 C241.67419312 224.01010163 236.34059815 228.00961818 231 232 C229.95199219 232.78383057 229.95199219 232.78383057 228.8828125 233.58349609 C226.90437657 235.06021659 224.92169141 236.53102524 222.9375 238 C222.04695923 238.6657605 222.04695923 238.6657605 221.13842773 239.3449707 C217.23997497 242.21933266 213.24429236 244.66428752 209 247 C203.26709458 239.24703538 197.59503275 231.45999441 192.0625 223.5625 C186.21948018 215.23795099 180.15664445 207.0944102 174 199 C173.57509277 198.43861328 173.15018555 197.87722656 172.71240234 197.29882812 C166.16185021 188.64784132 159.36159343 180.21545293 152.48828125 171.8203125 C151.18590621 170.22738135 149.88933968 168.6297048 148.59375 167.03125 C140.1015531 156.56984803 131.32989309 146.36741909 122.22265625 136.4375 C120.32578236 134.35727275 118.46607057 132.25443102 116.625 130.125 C108.01644556 120.27539538 98.98594976 110.88420831 89.75 101.625 C89.27859589 101.15100769 88.80719177 100.67701538 88.32150269 100.18865967 C82.72263708 94.56557236 77.02345579 89.16320261 71 84 C69.16130852 82.3392464 67.3273443 80.67323092 65.5 79 C61.71337002 75.54671847 57.8952368 72.13900949 54.02734375 68.77734375 C51.66510827 66.70640513 49.33204147 64.60487152 47 62.5 C41.67665307 57.70092208 36.31136661 52.9592205 30.84765625 48.3203125 C24.33046178 42.77918498 17.93937397 37.14971333 11.69799805 31.29907227 C8.28772573 28.12406326 4.77426933 25.15248843 1.125 22.25 C-8.34577254 14.55673316 -8.34577254 14.55673316 -11 10 C-11.12301156 6.24814745 -10.74175009 4.27745849 -8.875 1.0625 C-5.85048838 -0.65138992 -3.41886201 -0.30176871 0 0 Z " fill="#3AB4FE" transform="translate(18,69)"/>
<path d="M0 0 C1.65649414 1.25585938 1.65649414 1.25585938 3.28515625 2.84375 C3.89230469 3.42576172 4.49945313 4.00777344 5.125 4.60742188 C5.764375 5.23197266 6.40375 5.85652344 7.0625 6.5 C11.42291898 10.67138347 15.76957739 14.74411558 20.5 18.5 C26.48342421 23.27600677 31.98775721 28.52279415 37.5546875 33.76953125 C40.67775922 36.71032579 43.86272092 39.56399177 47.11328125 42.36328125 C49.43658787 44.37873772 51.71748465 46.43848462 54 48.5 C56.98062721 51.18983431 59.97245233 53.86310364 63 56.5 C66.89512811 59.89253093 70.72782763 63.35194201 74.5625 66.8125 C76.69417481 68.72554149 78.8401911 70.61887612 81 72.5 C84.89512811 75.89253093 88.72782763 79.35194201 92.5625 82.8125 C94.69417481 84.72554149 96.8401911 86.61887612 99 88.5 C102.89512811 91.89253093 106.72782763 95.35194201 110.5625 98.8125 C112.69417481 100.72554149 114.8401911 102.61887612 117 104.5 C120.89512811 107.89253093 124.72782763 111.35194201 128.5625 114.8125 C130.69417481 116.72554149 132.8401911 118.61887612 135 120.5 C138.89512811 123.89253093 142.72782763 127.35194201 146.5625 130.8125 C148.69417481 132.72554149 150.8401911 134.61887612 153 136.5 C156.02754767 139.13689636 159.01937279 141.81016569 162 144.5 C167.32334693 149.29907792 172.68863339 154.0407795 178.15234375 158.6796875 C184.66925643 164.22057543 191.05675985 169.85296477 197.30200195 175.69873047 C201.57076916 179.66842874 206.039552 183.33938108 210.5859375 186.98828125 C212.68916189 188.74096825 214.60058933 190.53307474 216.5 192.5 C219.17041844 195.26489079 221.99595992 197.66368565 225 200.0625 C230.46070912 204.45366333 235.55325977 209.17118414 240.65112305 213.97558594 C244.40596635 217.51420189 248.19407619 220.98945555 252.10546875 224.35546875 C255.33877994 227.1621162 258.49705323 230.05220418 261.66015625 232.9375 C263.5736281 234.62416634 265.50567788 236.12554215 267.5625 237.625 C270 240 270 240 271.125 243.5 C271 247 271 247 269.5 249.9375 C267 252 267 252 263.74609375 252.4765625 C258.79613482 251.84684927 256.94274239 249.91225152 253.5625 246.4375 C252.42255095 245.32482789 251.28192884 244.21284491 250.140625 243.1015625 C249.59857422 242.56305664 249.05652344 242.02455078 248.49804688 241.46972656 C246.6665781 239.67288138 244.75970583 237.98266435 242.8125 236.3125 C239.89644231 233.79297735 237.03684553 231.21978018 234.1875 228.625 C230.81059018 225.57141133 227.36782868 222.65570795 223.8125 219.8125 C218.47860593 215.50464496 213.52484514 210.86140135 208.5480957 206.15356445 C204.96961956 202.78588086 201.34462476 199.56654594 197.5 196.5 C191.51657579 191.72399323 186.01224279 186.47720585 180.4453125 181.23046875 C177.32224078 178.28967421 174.13727908 175.43600823 170.88671875 172.63671875 C168.56341213 170.62126228 166.28251535 168.56151538 164 166.5 C160.37976277 163.23295665 156.73016435 160.00479224 153.05078125 156.8046875 C150.73911203 154.77041859 148.4646857 152.6977769 146.1875 150.625 C142.81059018 147.57141133 139.36782868 144.65570795 135.8125 141.8125 C129.74679782 136.90996514 124.11835023 131.57741963 118.4453125 126.23046875 C115.32224078 123.28967421 112.13727908 120.43600823 108.88671875 117.63671875 C106.56341213 115.62126228 104.28251535 113.56151538 102 111.5 C96.67665307 106.70092208 91.31136661 101.9592205 85.84765625 97.3203125 C79.26681821 91.72558261 72.80234102 86.04264888 66.48046875 80.15625 C63.02630626 76.94030561 59.52564408 73.79482045 55.95703125 70.70703125 C53.6144085 68.66366569 51.30726578 66.58319141 49 64.5 C46.01937279 61.81016569 43.02754767 59.13689636 40 56.5 C36.97245233 53.86310364 33.98062721 51.18983431 31 48.5 C25.67665307 43.70092208 20.31136661 38.9592205 14.84765625 34.3203125 C8.27254992 28.73045544 1.80839206 23.05744775 -4.50195312 17.16943359 C-8.09520166 13.81833877 -11.75258553 10.56581132 -15.51171875 7.40234375 C-17 6 -17 6 -19 3 C-16.586238 2.30048937 -14.16989766 1.61516081 -11.75 0.9375 C-11.06808594 0.73833984 -10.38617188 0.53917969 -9.68359375 0.33398438 C-6.05632317 -0.66967787 -3.55291579 -1.30605764 0 0 Z " fill="#9B66D8" transform="translate(327,343)"/>
<path d="M0 0 C2.4375 1.5625 2.4375 1.5625 4 4 C4.5 7.5 4.5 7.5 4 11 C1.31152187 14.32234076 -0.84483804 15.57554887 -4.98046875 16.4921875 C-5.96660156 16.7190625 -6.95273437 16.9459375 -7.96875 17.1796875 C-9.0309375 17.40914063 -10.093125 17.63859375 -11.1875 17.875 C-13.46232668 18.39284672 -15.73706386 18.91108672 -18.01171875 19.4296875 C-19.75654541 19.81979004 -19.75654541 19.81979004 -21.53662109 20.21777344 C-26.87131159 21.42264784 -32.18465593 22.7129632 -37.5 24 C-39.59625673 24.5030104 -41.69261113 25.00561393 -43.7890625 25.5078125 C-47.82678599 26.47661417 -51.86316082 27.45074683 -55.8984375 28.4296875 C-64.90321405 30.60951813 -73.91144751 32.76520758 -82.94921875 34.8046875 C-83.64317749 34.96138412 -84.33713623 35.11808075 -85.05212402 35.27952576 C-85.75792603 35.43889114 -86.46372803 35.59825653 -87.19091797 35.76245117 C-102.44904269 39.20835254 -117.63655835 42.87270679 -132.80157471 46.70776367 C-146.47183894 50.16120732 -160.17766313 53.3589555 -173.94140625 56.41796875 C-183.64757275 58.57856538 -193.30897734 60.92017338 -202.97167969 63.26611328 C-208.14557305 64.51996071 -213.32301965 65.75897339 -218.5 67 C-220.59765934 67.50389337 -222.6953156 68.00779959 -224.79296875 68.51171875 C-228.8153126 69.47730714 -232.83874911 70.43810668 -236.86328125 71.39453125 C-249.3470349 74.36690268 -261.80328925 77.43939456 -274.25 80.5625 C-286.37689402 83.60445059 -298.50366971 86.63831804 -310.68408203 89.46044922 C-313.16536179 90.03852515 -315.64304302 90.63090392 -318.12109375 91.22265625 C-319.76805863 91.60750141 -321.41518754 91.99164539 -323.0625 92.375 C-323.80773926 92.55522705 -324.55297852 92.7354541 -325.32080078 92.92114258 C-328.94068279 93.74807286 -331.45604704 94.07298012 -335 93 C-333.77023437 91.67935547 -333.77023437 91.67935547 -332.515625 90.33203125 C-331.42699378 89.15893726 -330.33845712 87.98575552 -329.25 86.8125 C-328.71117187 86.23435547 -328.17234375 85.65621094 -327.6171875 85.06054688 C-327.08867187 84.49013672 -326.56015625 83.91972656 -326.015625 83.33203125 C-325.48976807 82.76758301 -324.96391113 82.20313477 -324.42211914 81.62158203 C-322.83384163 79.87998824 -322.83384163 79.87998824 -321.13671875 77.23046875 C-318.04092454 73.99884445 -314.8424929 73.45825928 -310.5625 72.5 C-309.71397461 72.29407227 -308.86544922 72.08814453 -307.99121094 71.87597656 C-306.20398376 71.44475796 -304.41468819 71.02203166 -302.62353516 70.60742188 C-300.22739065 70.05264731 -297.83780417 69.47694734 -295.44921875 68.890625 C-286.97796039 66.82529597 -278.47924144 64.87796269 -269.98046875 62.9296875 C-266.6327343 62.1617988 -263.28509069 61.39351521 -259.9375 60.625 C-259.08796753 60.43008972 -258.23843506 60.23517944 -257.36315918 60.03436279 C-245.5874298 57.32948976 -233.85516452 54.5001219 -222.14526367 51.52172852 C-212.41791762 49.06418174 -202.6391636 46.87128486 -192.84570312 44.69482422 C-183.52407597 42.6127347 -174.25752981 40.34952828 -165 38 C-154.63475328 35.37040816 -144.25256535 32.88296214 -133.8125 30.5625 C-122.28134874 27.99690198 -110.78898913 25.29972788 -99.3125 22.5 C-98.52668549 22.30836273 -97.74087097 22.11672546 -96.9312439 21.91928101 C-85.70090077 19.17702323 -74.48961169 16.36268958 -63.28173828 13.5300293 C-53.19845135 11.00442841 -43.06675449 8.71350878 -32.91455078 6.48388672 C-25.42166009 4.82758616 -25.42166009 4.82758616 -17.99462891 2.90380859 C-17.32977982 2.71924606 -16.66493073 2.53468353 -15.97993469 2.3445282 C-14.1335138 1.82503774 -12.29085633 1.29222385 -10.44848633 0.75854492 C-6.82625846 -0.03821699 -3.69704996 -0.2412646 0 0 Z " fill="#FE7848" transform="translate(592,264)"/>
<path d="M0 0 C1.90411873 2.05241458 3.49712094 3.99766368 5.125 6.25 C6.09409013 7.5381647 7.06550285 8.82458492 8.0390625 10.109375 C8.53051758 10.76228516 9.02197266 11.41519531 9.52832031 12.08789062 C11.753013 14.97836726 14.11866808 17.73835499 16.5 20.5 C21.22341347 26.01721517 25.72884221 31.68101849 30.19140625 37.41015625 C33.04822271 41.0749208 35.96057039 44.69351966 38.875 48.3125 C43.75141747 54.38066633 48.50085606 60.53837947 53.21435547 66.73364258 C56.60475029 71.18676654 60.03043054 75.60833205 63.5 80 C69.14583035 87.15397713 74.67920076 94.39142286 80.20068359 101.64160156 C82.1045029 104.13697395 84.01472742 106.62735203 85.92578125 109.1171875 C93.36368235 118.82148506 100.6663464 128.60133468 107.7890625 138.5390625 C111.15035084 143.22418132 114.57176732 147.86374589 118 152.5 C124.19054235 160.87916111 130.3047476 169.31107989 136.39111328 177.76611328 C138.54897962 180.76224029 140.71094481 183.75539623 142.87329102 186.74829102 C143.95616679 188.24721992 145.03868743 189.74640544 146.12084961 191.24584961 C148.84837352 195.02479066 151.58021999 198.80047295 154.3203125 202.5703125 C157.03184707 206.30231278 159.72629839 210.04619012 162.41259766 213.79638672 C164.01549787 216.02151396 165.63835088 218.23118479 167.26171875 220.44140625 C168.27959047 221.85609164 169.29655757 223.27142847 170.3125 224.6875 C170.78703613 225.32252441 171.26157227 225.95754883 171.75048828 226.61181641 C174.73252972 230.82564364 175.65677745 233.68075293 175 239 C173.375 241.4375 173.375 241.4375 171 243 C168.0625 243.5625 168.0625 243.5625 165 243 C160.61404049 239.1613609 157.36254174 234.60853075 154 229.875 C153.43676025 229.08947754 152.87352051 228.30395508 152.29321289 227.49462891 C147.6969814 221.05441564 143.24757015 214.51817079 138.80664062 207.97045898 C134.86236959 202.18517216 130.74805684 196.55745388 126.51489258 190.98120117 C122.81181988 186.10095264 119.19999559 181.16224924 115.625 176.1875 C105.59902242 162.25679403 95.39962671 148.4716406 84.96606445 134.84326172 C80.53604544 129.0468251 76.18233796 123.20052913 71.875 117.3125 C65.66314521 108.83180741 59.25107386 100.52212082 52.76318359 92.25146484 C50.36603419 89.19046902 47.98172176 86.11958518 45.59741211 83.04858398 C42.73532378 79.36282805 39.86808746 75.68108863 37 72 C36.5143457 71.37641602 36.02869141 70.75283203 35.52832031 70.11035156 C29.71596148 62.65475062 23.81120313 55.28195016 17.83349609 47.95825195 C14.36073982 43.69670005 10.94150124 39.3986459 7.5625 35.0625 C2.80460549 28.95793173 -2.09867052 22.98024408 -7.05444336 17.03540039 C-10.8523776 12.4621303 -14.4770367 7.7882923 -18 3 C-15.94237091 2.29805625 -13.87863969 1.61398303 -11.8125 0.9375 C-10.66394531 0.55464844 -9.51539063 0.17179687 -8.33203125 -0.22265625 C-4.85751349 -1.03324128 -3.2700219 -1.38162426 0 0 Z " fill="#68C2EB" transform="translate(295,351)"/>
<path d="M0 0 C1.74609375 1.96484375 1.74609375 1.96484375 3.4375 4.9375 C3.76548584 5.5046875 4.09347168 6.071875 4.43139648 6.65625 C5.19600526 7.98820429 5.95082866 9.32580173 6.69824219 10.66748047 C8.14537983 13.26049491 9.62297886 15.83494895 11.1015625 18.41015625 C19.5519031 33.22319211 27.47628735 48.28716401 35.20800781 63.48339844 C36.88680529 66.77786694 38.57918623 70.06502401 40.2734375 73.3515625 C55.65759701 103.4099526 68.6457862 134.59542294 81 166 C81.38898468 166.98873108 81.38898468 166.98873108 81.78582764 167.99743652 C85.30334335 176.95735514 88.69953599 185.9580053 92 195 C92.25088379 195.68523743 92.50176758 196.37047485 92.76025391 197.07647705 C94.36100267 201.45493029 95.93936344 205.84060555 97.49182129 210.23641968 C97.99134982 211.64543034 98.4957135 213.05273756 99.00524902 214.4581604 C99.71155258 216.41239057 100.39727126 218.37271899 101.078125 220.3359375 C101.47418945 221.45532715 101.87025391 222.5747168 102.27832031 223.72802734 C103.11244288 227.50979686 102.85162462 230.23875343 102 234 C99.74582958 236.5881216 98.39479021 236.94242643 95 237.4375 C91.17807221 236.88013553 90.41195224 235.98598742 88 233 C86.89626737 230.34933639 85.96758494 227.80916792 85.109375 225.08203125 C84.56805325 223.43990818 84.02662576 221.79781997 83.48510742 220.15576172 C83.20347748 219.28691345 82.92184753 218.41806519 82.63168335 217.52288818 C67.8390267 172.0486918 49.2684055 127.81645402 28 85 C27.42330566 83.83404297 27.42330566 83.83404297 26.83496094 82.64453125 C25.21576798 79.37337419 23.58526754 76.1084176 21.9375 72.8515625 C20.518701 70.04474424 19.12894593 67.22504374 17.75 64.3984375 C10.30824286 49.20907685 1.9598188 34.58772859 -6.49609375 19.9453125 C-7.05312988 18.97779053 -7.61016602 18.01026855 -8.18408203 17.01342773 C-9.24974854 15.16408892 -10.31957692 13.31714058 -11.39404297 11.47290039 C-11.8685791 10.65039795 -12.34311523 9.82789551 -12.83203125 8.98046875 C-13.25202393 8.25754639 -13.6720166 7.53462402 -14.10473633 6.78979492 C-15 5 -15 5 -15 3 C-13.44033782 2.491217 -11.87710759 1.99336531 -10.3125 1.5 C-9.44238281 1.2215625 -8.57226562 0.943125 -7.67578125 0.65625 C-4.86453568 -0.03322337 -2.86453812 -0.48368431 0 0 Z " fill="#3BB7FE" transform="translate(270,356)"/>
<path d="M0 0 C3.5625 0.4375 3.5625 0.4375 6 2.0625 C8.06200749 5.19675139 8.01663223 6.71984888 7.5625 10.4375 C6.03637108 12.84919696 4.57942825 14.84787541 2.75 17 C2.00882935 17.90637207 2.00882935 17.90637207 1.25268555 18.83105469 C-0.29470253 20.71389395 -1.86281999 22.57745221 -3.4375 24.4375 C-3.9231543 25.0154834 -4.40880859 25.5934668 -4.90917969 26.18896484 C-7.22367691 28.94307396 -9.5503544 31.68630344 -11.88671875 34.421875 C-14.11836903 37.06021194 -16.29238492 39.72880072 -18.4375 42.4375 C-23.29326425 48.5591254 -28.37302202 54.48893994 -33.4375 60.4375 C-35.31414322 62.64444275 -37.18906528 64.85283304 -39.0625 67.0625 C-39.74940918 67.87207153 -39.74940918 67.87207153 -40.45019531 68.69799805 C-43.34437109 72.11815252 -46.18351848 75.57778473 -49 79.0625 C-52.82769624 83.77036168 -56.87148285 88.23677169 -60.98046875 92.69921875 C-63.33126133 95.31910046 -65.55000459 98.00302219 -67.75 100.75 C-72.38171018 106.4923334 -77.38573463 111.838143 -82.4296875 117.21484375 C-85.2822641 120.25811941 -88.0467621 123.36694134 -90.7734375 126.5234375 C-93.51702384 129.67920582 -96.32717561 132.77479658 -99.12890625 135.87890625 C-100.6186928 137.53002333 -102.10586877 139.18350144 -103.58984375 140.83984375 C-109.80227713 147.77125676 -116.10284191 154.61795329 -122.4375 161.4375 C-123.03401367 162.08058105 -123.63052734 162.72366211 -124.24511719 163.38623047 C-131.5708926 171.27567405 -138.95466646 179.06921436 -146.65625 186.59375 C-148.74306921 188.72746402 -150.69015075 190.86430672 -152.62890625 193.125 C-157.12293617 198.31504603 -162.00008504 203.10821059 -166.875 207.9375 C-168.25848633 209.31421875 -168.25848633 209.31421875 -169.66992188 210.71875 C-171.92349899 212.96065055 -174.17939075 215.200166 -176.4375 217.4375 C-177.0975 217.1075 -177.7575 216.7775 -178.4375 216.4375 C-178.07213135 215.85709961 -177.7067627 215.27669922 -177.33032227 214.67871094 C-175.55131198 211.84970712 -173.77572215 209.01856886 -172 206.1875 C-170.9936853 204.58853882 -170.9936853 204.58853882 -169.96704102 202.95727539 C-166.27384427 197.06478318 -162.65238612 191.14378136 -159.1484375 185.13671875 C-151.85959256 172.68653913 -144.62802833 161.1866583 -134.15234375 151.11621094 C-131.07229106 148.10105685 -128.17466143 144.91479321 -125.25 141.75 C-124.08895342 140.50482428 -122.92750317 139.2600248 -121.765625 138.015625 C-115.14361923 130.90366736 -108.5469619 123.77185559 -102.1796875 116.4296875 C-100.12249601 114.07729365 -98.03153085 111.75715034 -95.9375 109.4375 C-89.6020691 102.40996321 -83.41794059 95.26064098 -77.26904297 88.07006836 C-74.00227908 84.25277741 -70.71597243 80.45335197 -67.41650391 76.66430664 C-62.44761485 70.95656286 -57.57457689 65.19506558 -52.8125 59.3125 C-49.91253476 55.80201576 -46.92971027 52.36936273 -43.9375 48.9375 C-38.648662 42.86549548 -33.49652534 36.70303631 -28.4375 30.4375 C-26.27223961 27.76969057 -24.10470572 25.10372925 -21.9375 22.4375 C-20.82548474 21.06903975 -19.713505 19.70055063 -18.6015625 18.33203125 C-17.79960449 17.34517334 -17.79960449 17.34517334 -16.98144531 16.33837891 C-15.99587103 15.12495681 -15.01079386 13.91113066 -14.02636719 12.69677734 C-12.78991272 11.17163325 -11.55128014 9.64825571 -10.3125 8.125 C-9.28769531 6.86236328 -9.28769531 6.86236328 -8.2421875 5.57421875 C-3.95982692 0.50397797 -3.95982692 0.50397797 0 0 Z " fill="#FF3434" transform="translate(534.4375,8.5625)"/>
<path d="M0 0 C-0.80824219 0.79664063 -1.61648437 1.59328125 -2.44921875 2.4140625 C-3.52878171 3.48423795 -4.60820113 4.55455821 -5.6875 5.625 C-6.21794922 6.14707031 -6.74839844 6.66914063 -7.29492188 7.20703125 C-9.88240641 9.77864164 -12.23765264 12.29392057 -14.39453125 15.23828125 C-17.59870394 18.63460823 -20.59365978 19.5509953 -25 20.5625 C-25.78689209 20.76174072 -26.57378418 20.96098145 -27.38452148 21.16625977 C-29.91793411 21.80079444 -32.45769033 22.40220715 -35 23 C-36.65779237 23.40265783 -38.31534545 23.80630215 -39.97265625 24.2109375 C-43.46132982 25.05588761 -46.95367401 25.88317364 -50.44921875 26.69921875 C-54.14314819 27.5615919 -57.83295858 28.43872889 -61.51953125 29.33203125 C-70.9999994 31.62891207 -80.486819 33.89172982 -89.99609375 36.06640625 C-90.78825287 36.24763031 -91.58041199 36.42885437 -92.39657593 36.61557007 C-93.6045433 36.89190781 -93.6045433 36.89190781 -94.83691406 37.17382812 C-113.34073405 41.40738978 -131.76734423 45.89050106 -150.17132568 50.53735352 C-158.24347593 52.57176056 -166.3414309 54.49134403 -174.44482422 56.39648438 C-178.3236614 57.31264007 -182.19893831 58.2434906 -186.07421875 59.17456055 C-188.17683003 59.67968511 -190.27969162 60.18376898 -192.3828125 60.68676758 C-197.90504022 62.0087321 -203.4221055 63.34874837 -208.93359375 64.71484375 C-210.06442383 64.99271729 -211.19525391 65.27059082 -212.36035156 65.55688477 C-214.52645564 66.08950986 -216.69125327 66.62748589 -218.85449219 67.17163086 C-228.52200013 69.53764295 -228.52200013 69.53764295 -233 69 C-236.36344489 66.51397551 -237.80057749 65.08574477 -238.5625 60.9375 C-237.85931113 57.26529146 -236.87777324 56.34418551 -234 54 C-230.94165039 52.89086914 -230.94165039 52.89086914 -227.34765625 52.03515625 C-226.70041595 51.87687347 -226.05317566 51.7185907 -225.38632202 51.55551147 C-223.28139698 51.04421182 -221.17231235 50.55320318 -219.0625 50.0625 C-217.59418512 49.71030292 -216.12616871 49.35685928 -214.65844727 49.00219727 C-211.07111153 48.13836843 -207.48033554 47.28998452 -203.88830566 46.44592285 C-201.35750186 45.84827424 -198.83088283 45.23399473 -196.3046875 44.6171875 C-188.68345403 42.76394083 -181.04239619 41.00380416 -173.390625 39.28125 C-172.71624893 39.12938736 -172.04187286 38.97752472 -171.34706116 38.82106018 C-168.01856187 38.07221257 -164.68939504 37.32667236 -161.35913086 36.58569336 C-153.53823782 34.8363567 -145.75891419 32.96387861 -137.98950195 31.00219727 C-132.17525564 29.53588069 -126.34404983 28.13960084 -120.51455688 26.73538208 C-110.98613792 24.43962967 -101.46255448 22.12729671 -91.95703125 19.73828125 C-91.22664642 19.55480133 -90.4962616 19.37132141 -89.7437439 19.18228149 C-86.23833519 18.3008165 -82.73386121 17.41581081 -79.23046875 16.52636719 C-77.97492188 16.20958008 -76.719375 15.89279297 -75.42578125 15.56640625 C-74.32661377 15.28740479 -73.22744629 15.00840332 -72.0949707 14.72094727 C-70.11277523 14.25921158 -68.11621714 13.85337442 -66.10839844 13.52026367 C-62.30985521 12.88448802 -58.58293619 12.0066074 -54.83984375 11.109375 C-54.06076157 10.92424347 -53.28167938 10.73911194 -52.47898865 10.54837036 C-50.81991249 10.15386318 -49.16104797 9.75846507 -47.50238037 9.36224365 C-44.92424343 8.74683562 -42.34529053 8.13495797 -39.76611328 7.52392578 C-32.49142536 5.79851241 -25.21967434 4.06528188 -17.96484375 2.2578125 C-16.99490479 2.01836914 -16.02496582 1.77892578 -15.02563477 1.53222656 C-13.31187617 1.10729904 -11.59995481 0.67486059 -9.89038086 0.23339844 C-6.18858538 -0.68086402 -3.64428063 -1.11567809 0 0 Z " fill="#FF4639" transform="translate(247,347)"/>
<path d="M0 0 C-0.875 4.75 -0.875 4.75 -2 7 C-1.34 7.33 -0.68 7.66 0 8 C-0.35049575 11.24208567 -0.56221181 12.61527704 -3.0625 14.8125 C-3.701875 15.204375 -4.34125 15.59625 -5 16 C-5.804375 15.525625 -6.60875 15.05125 -7.4375 14.5625 C-11.66939929 12.70640382 -15.43172078 12.29440022 -20 12 C-20 12.66 -20 13.32 -20 14 C-18.948125 14.14695312 -18.948125 14.14695312 -17.875 14.296875 C-10.81670561 15.40932357 -4.11844463 16.6803654 0.9375 22.0625 C3.09917885 26.00438496 3.19341942 29.38506968 3.25 33.8125 C3.27578125 35.01519531 3.3015625 36.21789062 3.328125 37.45703125 C2.863184 42.47728706 1.28969126 45.74516526 -2.3125 49.25 C-7.90896887 52.89421229 -13.44143585 53.86958598 -20 53 C-29.92147274 50.08107396 -29.92147274 50.08107396 -33 46 C-32.7397104 43.65739357 -32.40047444 41.32275177 -32 39 C-32.226875 38.113125 -32.45375 37.22625 -32.6875 36.3125 C-32.8421875 35.1678125 -32.8421875 35.1678125 -33 34 C-31.0625 31.6875 -31.0625 31.6875 -29 30 C-26.80825598 31.01759544 -25.04425871 31.96117657 -23.21875 33.5625 C-20.38212847 35.40031113 -18.59689433 35.30703194 -15.25 35.1875 C-14.26515625 35.16042969 -13.2803125 35.13335938 -12.265625 35.10546875 C-11.14414063 35.05326172 -11.14414063 35.05326172 -10 35 C-12.90663649 33.43282733 -15.68777132 32.46897021 -18.875 31.625 C-23.71221784 30.20522662 -28.07251508 28.68780769 -31.12890625 24.42578125 C-32.46920002 20.69339367 -32.40887786 17.06213478 -32.4375 13.125 C-32.47037109 12.33480469 -32.50324219 11.54460938 -32.53710938 10.73046875 C-32.57408045 6.69053904 -32.33433813 3.83507602 -29.84765625 0.5546875 C-21.53730696 -6.90068758 -8.94405707 -5.61195738 0 0 Z " fill="#8E55FF" transform="translate(225,505)"/>
<path d="M0 0 C5.1426468 3.61079456 9.62711213 7.49998094 14.0078125 12 C16.51837733 14.52041018 19.17224396 16.83257863 21.8671875 19.15234375 C24.27376821 21.2371655 26.63764945 23.36521533 29 25.5 C34.32334693 30.29907792 39.68863339 35.0407795 45.15234375 39.6796875 C51.73318179 45.27441739 58.19765898 50.95735112 64.51953125 56.84375 C67.97369374 60.05969439 71.47435592 63.20517955 75.04296875 66.29296875 C77.3855915 68.33633431 79.69273422 70.41680859 82 72.5 C84.98062721 75.18983431 87.97245233 77.86310364 91 80.5 C94.89512811 83.89253093 98.72782763 87.35194201 102.5625 90.8125 C104.69417481 92.72554149 106.8401911 94.61887612 109 96.5 C112.89512811 99.89253093 116.72782763 103.35194201 120.5625 106.8125 C122.69417481 108.72554149 124.8401911 110.61887612 127 112.5 C138.69047619 122.69047619 138.69047619 122.69047619 144 128 C140.04 130.97 136.08 133.94 132 137 C129.65541968 135.01220364 127.32487099 133.01069923 125 131 C123.91138672 130.071875 123.91138672 130.071875 122.80078125 129.125 C112.99411733 120.56645694 104.24295016 110.85460132 95.75390625 101.00390625 C92.06103267 96.78465425 88.23280603 92.68482363 84.43505859 88.56005859 C82.59228244 86.55676842 80.75427247 84.54914296 78.91650391 82.54125977 C77.0897197 80.54615844 75.26044854 78.55334483 73.43115234 76.56054688 C72.45147928 75.4922988 71.47267991 74.423249 70.49462891 73.35351562 C64.86593365 67.19752119 59.22639199 61.09740542 53.23046875 55.29296875 C51.39787519 53.40902406 49.70096462 51.49633047 47.99609375 49.5 C42.91847078 43.65248474 37.36952921 38.26307961 31.875 32.8125 C30.79273291 31.73526293 29.71070014 30.65779039 28.62890625 29.58007812 C26.64059746 27.59985746 24.65070634 25.62127988 22.65966797 23.64379883 C20.88803315 21.88273462 19.12165111 20.11637013 17.3605957 18.34472656 C15.52217018 16.51865988 13.67085069 14.75116982 11.73828125 13.02734375 C11.17689453 12.52009766 10.61550781 12.01285156 10.03710938 11.49023438 C8.87894931 10.44749683 7.71743192 9.40847721 6.55273438 8.37304688 C1.36096852 3.66144433 1.36096852 3.66144433 0 0 Z " fill="#4B58C2" transform="translate(121,161)"/>
<path d="M0 0 C22 0 22 0 31 4 C34.99787229 9.07754459 35.63528063 13.22122063 35.5 19.5625 C35.51546875 20.29146484 35.5309375 21.02042969 35.546875 21.77148438 C35.50961278 26.94627535 34.34514977 29.87618408 31 34 C24.81833642 39.43237103 17.83172219 38.07185066 10 38 C10 43.94 10 49.88 10 56 C6.7 56 3.4 56 0 56 C0 37.52 0 19.04 0 0 Z " fill="#8D53FF" transform="translate(108,501)"/>
<path d="M0 0 C4.78542962 5.46824955 5.48700393 10.6925737 5.58959961 17.82592773 C5.60563232 18.92807617 5.62166504 20.03022461 5.63818359 21.16577148 C5.2987057 28.72591654 3.47539462 32.9724897 -1.89257812 38.3046875 C-5.41254878 41.36998181 -9.04057604 44.19215137 -12.84790039 46.88842773 C-13.17790039 47.21842773 -13.50790039 47.54842773 -13.84790039 47.88842773 C-15.51407154 47.92906606 -17.18178134 47.93114874 -18.84790039 47.88842773 C-18.51790039 46.89842773 -18.18790039 45.90842773 -17.84790039 44.88842773 C-17.18790039 44.88842773 -16.52790039 44.88842773 -15.84790039 44.88842773 C-20.60723631 38.20626556 -25.52587833 31.68758479 -30.61401367 25.25463867 C-35.4193316 19.17894934 -40.1383211 13.03846404 -44.84790039 6.88842773 C-41.25103028 4.76959825 -37.50440594 4.09917865 -33.44946289 3.38061523 C-32.73688324 3.25026886 -32.02430359 3.11992249 -31.29013062 2.98562622 C-29.78616655 2.71210902 -28.2816426 2.44165485 -26.77661133 2.17407227 C-24.48623133 1.76580402 -22.19831381 1.34543033 -19.91040039 0.92358398 C-18.44438634 0.65853114 -16.9782443 0.39418504 -15.51196289 0.13061523 C-14.49448471 -0.05683762 -14.49448471 -0.05683762 -13.45645142 -0.24807739 C-3.35981775 -2.02103979 -3.35981775 -2.02103979 0 0 Z " fill="#FDFCFF" transform="translate(481.847900390625,356.111572265625)"/>
<path d="M0 0 C25.42133816 0 25.42133816 0 32.47265625 6.16015625 C34.68055599 10.26538161 34.54699693 13.84922529 34.4375 18.4375 C34.44458984 19.27087891 34.45167969 20.10425781 34.45898438 20.96289062 C34.40719665 26.00223491 33.96270344 29.74698597 31 34 C26.53829349 37.90560976 22.87393791 38.53967517 17.125 38.25 C16.43664062 38.23195313 15.74828125 38.21390625 15.0390625 38.1953125 C13.3587619 38.14863748 11.67918837 38.07690939 10 38 C10.01160156 38.6290625 10.02320313 39.258125 10.03515625 39.90625 C10.09286873 45.38069088 9.80228473 50.58457806 9 56 C6.03 56 3.06 56 0 56 C0 37.52 0 19.04 0 0 Z " fill="#8E55FF" transform="translate(152,501)"/>
<path d="M0 0 C3.21043882 1.38188453 5.04936365 2.92421903 7.25 5.625 C8.03117187 6.57246094 8.03117187 6.57246094 8.828125 7.5390625 C9.40820312 8.26222656 9.40820312 8.26222656 10 9 C8.68230669 11.86264267 7.21923962 14.10085851 5.13671875 16.4609375 C4.57919922 17.09773438 4.02167969 17.73453125 3.44726562 18.390625 C2.57618164 19.37289063 2.57618164 19.37289063 1.6875 20.375 C0.54504192 21.67401236 -0.59689217 22.97348576 -1.73828125 24.2734375 C-2.29644531 24.90016357 -2.85460937 25.52688965 -3.4296875 26.17260742 C-4.99489575 27.94806017 -4.99489575 27.94806017 -6.2734375 29.7277832 C-9.38166583 33.92017286 -12.45231817 35.29935045 -17.375 36.4375 C-18.50687744 36.72645142 -18.50687744 36.72645142 -19.66162109 37.02124023 C-22.43412288 37.71396121 -25.21471603 38.36056654 -28 39 C-29.19302734 39.27489258 -30.38605469 39.54978516 -31.61523438 39.83300781 C-36.97329513 41.06253379 -42.33415447 42.27888949 -47.70166016 43.46655273 C-55.95181711 45.29283948 -64.14543526 47.24236558 -72.296875 49.46875 C-75 50 -75 50 -78 49 C-77.50822266 48.74420166 -77.01644531 48.48840332 -76.50976562 48.22485352 C-70.65896781 45.1765444 -64.82425934 42.09870378 -59 39 C-58.29649414 38.62665527 -57.59298828 38.25331055 -56.86816406 37.86865234 C-36.99088908 27.24459158 -17.44393864 14.29061127 0 0 Z " fill="#FEFAF9" transform="translate(259,311)"/>
<path d="M0 0 C6.3234998 5.17872829 12.06283446 10.91049084 17.82470703 16.69433594 C19.49271066 18.36768729 21.16597673 20.03564117 22.83984375 21.703125 C27.91198556 26.77243659 32.87789346 31.86176235 37.53710938 37.31884766 C39.73687116 39.84681155 42.10225083 42.15866845 44.5 44.5 C48.25384024 48.16551458 51.74043603 51.95499807 55.17480469 55.92089844 C58.15721881 59.31820163 61.26859908 62.59141262 64.375 65.875 C69.99836086 71.84628301 75.5439605 77.87502079 81 84 C83.25232957 86.50522272 85.50725639 89.00803208 87.765625 91.5078125 C89.22633081 93.13706129 90.6748565 94.77733471 92.109375 96.4296875 C97.0260088 102.04613414 102.2468623 107.12899446 107.83496094 112.06591797 C109.25817978 113.33934663 110.63385431 114.66552693 112 116 C112 116.66 112 117.32 112 118 C110.03062339 119.62356346 108.06654852 121.13559566 106 122.625 C105.42765625 123.04523438 104.8553125 123.46546875 104.265625 123.8984375 C102.84796067 124.93805801 101.42450738 125.96977591 100 127 C96.63779046 122.90997098 93.59253296 118.6487539 90.5625 114.3125 C80.24535911 99.64216868 69.74485893 85.18283825 58.64599609 71.09130859 C57.08869722 69.11269362 55.53735583 67.12958832 53.98828125 65.14453125 C46.03340353 54.9607572 37.87926746 44.96964746 29.43505859 35.18701172 C26.44801827 31.7190153 23.54131809 28.20436506 20.6875 24.625 C16.08598355 18.92626428 11.05081625 13.6565213 5.96362305 8.39306641 C5.33625244 7.73741699 4.70888184 7.08176758 4.0625 6.40625 C3.49660156 5.82166016 2.93070313 5.23707031 2.34765625 4.63476562 C1 3 1 3 0 0 Z " fill="#778CF4" transform="translate(140,181)"/>
<path d="M0 0 C4.03654111 1.9828623 6.6500056 4.16579861 9 8 C10.66026461 12.98079383 10.59903425 17.30273629 8.875 22.1875 C6.05299253 26.42051121 2.92271008 29.35909664 -2 31 C-6.66694522 31.54225459 -10.07771048 31.4698456 -14.3125 29.3125 C-17.91425097 26.21331893 -20.48595612 23.54213163 -22 19 C-22.3684431 13.38124276 -22.19190228 9.84288621 -19 5 C-12.92434496 -0.48290821 -8.02754655 -0.76602732 0 0 Z " fill="#3FB8FF" transform="translate(82,220)"/>
<path d="M0 0 C4.13786723 2.17927674 6.44002042 5.16003063 9 9 C9.74295102 15.14623118 9.66707053 20.81552098 6 26 C1.15099232 30.4853321 -2.90067961 31.47076636 -9.35546875 31.4140625 C-13.81894702 30.7152018 -17.03867298 28.34600921 -20 25 C-22.5767715 19.82944861 -23.06547338 14.65884751 -22 9 C-16.51024991 -0.01580367 -10.17362694 -1.30803775 0 0 Z " fill="#41B9FF" transform="translate(46,215)"/>
<path d="M0 0 C3.85405943 2.23802848 6.99031203 4.98062407 9 9 C9.51228015 14.60988749 9.76256033 19.44764504 7.25 24.5625 C2.99509682 29.17197845 -0.42848592 31.11978359 -6.75 31.375 C-11.35169937 31.32125753 -14.08431134 30.44409134 -17.59375 27.47265625 C-21.21643575 23.67889923 -22.19205587 20.11597608 -22.4375 15 C-22.24174991 9.07411092 -20.02118344 5.90538647 -15.75 1.87890625 C-10.88210797 -1.44702566 -5.65211704 -1.04064249 0 0 Z " fill="#40B9FF" transform="translate(74,183)"/>
<path d="M0 0 C4.87995132 2.26569169 7.63239735 5.17373306 10 10 C10.90107455 15.63930927 10.26166412 20.21622595 7 25 C2.99653611 29.03627917 -0.58591754 31.12458106 -6.3125 31.3125 C-10.94226662 31.25237316 -13.4369151 30.06591027 -17 27 C-20.63130412 23.18945418 -21.54951779 20.81757567 -21.5 15.5625 C-21.32628204 10.26110714 -20.82610959 6.92951795 -17 3 C-11.54865545 -0.88712713 -6.48933483 -0.78365102 0 0 Z " fill="#3FB8FF" transform="translate(110,199)"/>
<path d="M0 0 C2.0012207 1.44946289 2.0012207 1.44946289 3.92578125 3.47265625 C4.64056641 4.20806641 5.35535156 4.94347656 6.09179688 5.70117188 C6.82462891 6.48041016 7.55746094 7.25964844 8.3125 8.0625 C9.76438307 9.57666224 11.21879621 11.08840269 12.67578125 12.59765625 C13.38686035 13.3364502 14.09793945 14.07524414 14.83056641 14.83642578 C17.57956262 17.57799729 20.48107673 20.09757931 23.45776367 22.58764648 C25 24 25 24 26 26 C12.47 26 -1.06 26 -15 26 C-15 10 -15 10 -10.3125 4 C-6.77097696 0.81000591 -4.77767661 -0.5904231 0 0 Z " fill="#FDFDFF" transform="translate(494,394)"/>
<path d="M0 0 C3.21043882 1.38188453 5.04936365 2.92421903 7.25 5.625 C7.77078125 6.25664062 8.2915625 6.88828125 8.828125 7.5390625 C9.40820312 8.26222656 9.40820312 8.26222656 10 9 C8.68230669 11.86264267 7.21923962 14.10085851 5.13671875 16.4609375 C4.57919922 17.09773438 4.02167969 17.73453125 3.44726562 18.390625 C2.86654297 19.04546875 2.28582031 19.7003125 1.6875 20.375 C0.54504192 21.67401236 -0.59689217 22.97348576 -1.73828125 24.2734375 C-2.29209473 24.89702148 -2.8459082 25.52060547 -3.41650391 26.16308594 C-4.90434429 27.88903583 -6.28146464 29.66927854 -7.66796875 31.4765625 C-8.43753906 32.30929687 -9.20710937 33.14203125 -10 34 C-11.32 34 -12.64 34 -14 34 C-15.831471 31.7651871 -17.30981971 29.68913322 -18.8125 27.25 C-19.23208984 26.61578125 -19.65167969 25.9815625 -20.08398438 25.328125 C-23.05126046 20.63523366 -23.05126046 20.63523366 -22.83569336 17.96386719 C-21.77214699 15.46454875 -20.60074281 14.63992927 -18.359375 13.125 C-17.61816406 12.61453125 -16.87695312 12.1040625 -16.11328125 11.578125 C-15.33339844 11.05734375 -14.55351562 10.5365625 -13.75 10 C-12.22302592 8.95970063 -10.69696162 7.91806443 -9.171875 6.875 C-8.45193359 6.38515625 -7.73199219 5.8953125 -6.99023438 5.390625 C-4.57014757 3.69965169 -2.26909271 1.88788514 0 0 Z " fill="#3DB6FC" transform="translate(259,311)"/>
<path d="M0 0 C2.97 0 5.94 0 9 0 C9 18.15 9 36.3 9 55 C6.03 55 3.06 55 0 55 C0 36.85 0 18.7 0 0 Z " fill="#8C52FF" transform="translate(87,502)"/>
<path d="M0 0 C3.75212276 2.01502889 5.63644095 3.45466142 8 7 C8.66624845 11.07463524 8.94496094 15.24356703 6.94921875 18.953125 C4.54480216 21.87530681 2.60173645 23.82706916 -1.20703125 24.23828125 C-8.22118281 24.43808467 -8.22118281 24.43808467 -12 22.3125 C-15.03123377 18.80763596 -15.82478999 16.18266758 -16.5 11.625 C-15.8288294 6.75901315 -13.5570446 4.26216007 -10 1 C-6.78734554 -0.60632723 -3.48478188 -0.47931944 0 0 Z " fill="#40B9FF" transform="translate(108,239)"/>
<path d="M0 0 C3.56024087 1.27631276 5.45730568 2.34876682 7.875 5.25 C9.31158806 8.76165971 9.40359922 11.23307391 9 15 C7.19007928 19.09613637 4.8640796 21.73195328 1 24 C-3.58700801 24.82566144 -6.90591807 24.65179349 -10.9375 22.25 C-14.69933581 18.14617912 -15.49371817 14.72210986 -15.39453125 9.2578125 C-14.72202988 5.40924032 -12.79323112 3.66022012 -10 1 C-6.79788792 -0.60105604 -3.48253365 -0.35668408 0 0 Z " fill="#43BAFF" transform="translate(67,274)"/>
<path d="M0 0 C3.12578143 1.6720747 5.39281175 3.7856235 7 7 C7.35017306 12.3401391 7.46830225 15.66462219 4 20 C0.18791358 23.40689719 -2.62894945 23.50889847 -7.58984375 23.35546875 C-11.8257677 22.73072146 -13.83982213 20.54690383 -16.3125 17.25 C-17.37223702 13.78176974 -17.6872569 10.54515686 -17 7 C-12.9112643 -0.06788886 -7.67744317 -1.08166121 0 0 Z " fill="#3FB8FF" transform="translate(97,286)"/>
<path d="M0 0 C3.12291165 1.68012647 5.39164837 3.78329674 7 7 C7.35017306 12.3401391 7.46830225 15.66462219 4 20 C0.18742329 23.40733537 -2.62909544 23.50549424 -7.58984375 23.359375 C-10.99594517 22.85149602 -12.70351392 21.51178164 -15 19 C-17.46986894 15.29519659 -17.67432448 12.29780299 -17 8 C-12.89861561 0.36293942 -8.3022388 -1.30205919 0 0 Z " fill="#3FB8FF" transform="translate(36,252)"/>
<path d="M0 0 C3.00197464 1.80118478 4.45166366 2.90332732 6 6 C6.62165748 11.51498995 7.06404786 15.63583608 3.5625 20.125 C2.716875 20.74375 1.87125 21.3625 1 22 C0.67 22.33 0.34 22.66 0 23 C-4.48875454 23.67293083 -9.03926428 24.15118953 -13.0625 21.7890625 C-16.31000664 18.4634908 -17.39656847 15.49900787 -17.625 10.875 C-17.35764382 6.48367469 -16.3268229 4.0332797 -13 1 C-9.0649579 -0.96752105 -4.2894478 -0.46422595 0 0 Z " fill="#40B9FF" transform="translate(89,257)"/>
<path d="M0 0 C3.7437925 1.66390778 5.82498424 3.56029812 8 7 C8.8562083 11.74385682 8.68406186 15.78389003 6.3125 20 C2.97162429 22.88940602 0.41834936 23.81893412 -3.9375 24.375 C-7.86684549 23.89385565 -9.92648237 22.44484357 -13 20 C-15.82792793 15.7581081 -15.78122286 11.98126257 -15 7 C-11.53716049 0.56349533 -6.97619854 -0.75128292 0 0 Z " fill="#42B9FF" transform="translate(43,276)"/>
<path d="M0 0 C3.63467079 1.62400184 4.77408696 2.66113044 7 6 C7.68869056 11.17318721 7.84213522 15.59644131 5.125 20.125 C1.17654142 23.60893404 -2.18351299 23.32645142 -7.29296875 23.29296875 C-10.88443175 22.90428228 -12.63040824 21.68553733 -15 19 C-16.97698481 15.04603037 -16.57069292 10.29880647 -16 6 C-11.40681468 -0.04366489 -7.21141025 -0.71115983 0 0 Z " fill="#41B9FF" transform="translate(60,245)"/>
<path d="M0 0 C3.6578218 2.03993908 5.66946174 3.50419262 8 7 C8.76579737 13.67337705 8.76579737 13.67337705 6.94921875 16.8203125 C4.61469363 19.67132548 2.72735892 21.69598483 -0.953125 22.34375 C-4.42100005 22.57965987 -6.96451128 22.68892556 -9.92578125 20.71875 C-12.79491739 17.70581468 -14.37764136 15.07211754 -14.625 10.875 C-13.93611591 6.60391862 -13.11526165 4.94219156 -10 2 C-6.73065722 -0.28853994 -3.9301848 -0.47162218 0 0 Z " fill="#F8FCFF" transform="translate(79,224)"/>
<path d="M0 0 C3.6578218 2.03993908 5.66946174 3.50419262 8 7 C8.76579737 13.67337705 8.76579737 13.67337705 6.94921875 16.8203125 C5.17251621 18.99009082 3.52491118 20.73754441 1 22 C-6.0505676 22.57791538 -6.0505676 22.57791538 -9.875 20.25 C-12.81923695 17.13257264 -13.85734167 15.34098834 -14.3125 11.0625 C-13.9497378 7.50743041 -13.19786786 5.80417623 -11 3 C-7.33060635 0.12398876 -4.62619262 -0.66088466 0 0 Z " fill="#FAFDFF" transform="translate(107,203)"/>
<path d="M0 0 C3.0625 1.9375 3.0625 1.9375 5 5 C5.91455665 9.97290177 5.7861114 13.71601805 3.125 18.0625 C-0.4104895 21.28603454 -3.09174754 21.38930436 -7.73828125 21.359375 C-11.32520929 20.78943134 -12.86838894 18.79773951 -15 16 C-16.61429923 12.77140153 -16.59570657 9.49006347 -16 6 C-11.95542823 -1.04781723 -7.43208685 -1.80676594 0 0 Z " fill="#FAFDFF" transform="translate(73,188)"/>
<path d="M0 0 C3.28120982 2.67853863 4.60356035 4.13575075 5.47265625 8.22265625 C5.75949726 12.62823998 5.43039001 14.45634946 2.625 18 C-1.05410412 20.80312695 -3.28088285 21.3355147 -7.9609375 21.29296875 C-11.13134567 20.83745033 -12.8192402 19.24684343 -15 17 C-16.74221711 13.51556578 -16.58675154 9.80112955 -16 6 C-12.13511957 -0.9798587 -7.2992814 -2.0010099 0 0 Z " fill="#FAFDFF" transform="translate(45,220)"/>
<path d="M0 0 C0.33 0 0.66 0 1 0 C1.08165496 2.20770805 1.13948488 4.41630425 1.1875 6.625 C1.23970703 8.46964844 1.23970703 8.46964844 1.29296875 10.3515625 C0.88384995 15.44645523 -0.66148814 18.69766414 -4.3125 22.25 C-9.90896887 25.89421229 -15.44143585 26.86958598 -22 26 C-26.84088397 24.5757979 -31.78616896 23.09318546 -35 19 C-34.8125 16.375 -34.8125 16.375 -34 14 C-33.34 13.67 -32.68 13.34 -32 13 C-30.71609375 13.69802734 -30.71609375 13.69802734 -29.40625 14.41015625 C-25.2303378 16.35923453 -22.0372405 16.48135733 -17.5 16.4375 C-16.76652344 16.45748047 -16.03304687 16.47746094 -15.27734375 16.49804688 C-10.07991858 16.49339802 -7.11050207 15.42335489 -3 12 C-0.97649676 8.96474514 -0.67875982 7.80573798 -0.375 4.3125 C-0.30023438 3.50425781 -0.22546875 2.69601562 -0.1484375 1.86328125 C-0.09945312 1.24839844 -0.05046875 0.63351562 0 0 Z " fill="#BD9CFF" transform="translate(227,532)"/>
<path d="M0 0 C3.59757585 1.54895627 6.12532462 3.73695948 9 6.375 C9.845625 7.14585937 10.69125 7.91671875 11.5625 8.7109375 C13.75248722 10.76756012 15.89052389 12.86122561 18 15 C15.94037148 15.67548578 13.87715678 16.34004312 11.8125 17 C10.66394531 17.37125 9.51539063 17.7425 8.33203125 18.125 C5.26742634 18.92977315 3.12049991 19.45767332 0 19 C-2.23828125 17.46875 -2.23828125 17.46875 -4.3125 15.5 C-5.00988281 14.8503125 -5.70726562 14.200625 -6.42578125 13.53125 C-7.20501953 12.77328125 -7.20501953 12.77328125 -8 12 C-6.49087042 7.01987239 -3.44338151 3.75740058 0 0 Z " fill="#675DC7" transform="translate(293,315)"/>
<path d="M0 0 C3.21043882 1.38188453 5.04936365 2.92421903 7.25 5.625 C7.77078125 6.25664062 8.2915625 6.88828125 8.828125 7.5390625 C9.40820312 8.26222656 9.40820312 8.26222656 10 9 C8.3718356 12.75730247 5.98598083 15.616823 3.375 18.75 C2.55773437 19.73484375 1.74046875 20.7196875 0.8984375 21.734375 C0.27195312 22.48203125 -0.35453125 23.2296875 -1 24 C-3.79571573 21.33191478 -6.09927149 18.64729937 -8.25 15.4375 C-9.03117188 14.29087891 -9.03117188 14.29087891 -9.828125 13.12109375 C-11 11 -11 11 -11 8 C-8.59375 5.95703125 -8.59375 5.95703125 -5.5 3.8125 C-4.4790625 3.09707031 -3.458125 2.38164062 -2.40625 1.64453125 C-1.6121875 1.10183594 -0.818125 0.55914062 0 0 Z " fill="#779BF0" transform="translate(259,311)"/>
<path d="M0 0 C11.36470588 -0.49411765 11.36470588 -0.49411765 14.35546875 1.83203125 C16 4 16 4 16.5625 6.9375 C16 10 16 10 14.1875 12.875 C9.40343027 16.06437982 5.67799218 15.34204772 0 15 C0 10.05 0 5.1 0 0 Z " fill="#BC9BFF" transform="translate(161,509)"/>
<path d="M0 0 C11.44335938 -0.36914062 11.44335938 -0.36914062 13.85546875 1.23046875 C16.01661965 4.57177031 15.72306239 8.19328919 15 12 C12.63344059 14.60321535 10.89967129 14.94231115 7.44140625 15.1640625 C4.96042457 15.18517724 2.47908905 15.09916356 0 15 C0 10.05 0 5.1 0 0 Z " fill="#BE9DFF" transform="translate(118,509)"/>
<path d="M0 0 C0.33 0 0.66 0 1 0 C1.28788265 5.56573129 1.24860472 9.23537975 -2 14 C-6.57796753 17.76047333 -10.10232735 18.5408711 -15.875 18.25 C-16.56335938 18.23195313 -17.25171875 18.21390625 -17.9609375 18.1953125 C-19.6412381 18.14863748 -21.32081163 18.07690939 -23 18 C-23 21.3 -23 24.6 -23 28 C-23.33 28 -23.66 28 -24 28 C-24 22.06 -24 16.12 -24 10 C-16.375 9.75 -16.375 9.75 -14.00927734 9.70214844 C-8.99271629 9.46017164 -5.97242428 8.2942055 -2 5 C-0.58809436 2.39562767 -0.58809436 2.39562767 0 0 Z " fill="#BC9BFF" transform="translate(185,521)"/>
<path d="M0 0 C0.33 0 0.66 0 1 0 C1.35892545 5.04489655 1.58426255 8.85234141 -0.75 13.4375 C-3.66568868 16.75814544 -5.80437946 18.60145982 -10 20 C-12.39490986 20.06970052 -14.79167691 20.08448003 -17.1875 20.0625 C-18.45980469 20.05347656 -19.73210937 20.04445313 -21.04296875 20.03515625 C-22.50669922 20.01775391 -22.50669922 20.01775391 -24 20 C-24 17.36 -24 14.72 -24 12 C-23.05898437 11.96261719 -22.11796875 11.92523437 -21.1484375 11.88671875 C-19.90320313 11.82097656 -18.65796875 11.75523437 -17.375 11.6875 C-15.53035156 11.60048828 -15.53035156 11.60048828 -13.6484375 11.51171875 C-8.97940343 10.85685423 -5.43958495 9.53886667 -2.1875 6.0625 C-1.01141961 4.01983406 -0.41273584 2.31132071 0 0 Z " fill="#BC9BFF" transform="translate(142,519)"/>
<path d="M0 0 C2.5 1.625 2.5 1.625 4 4 C4.63656938 7.73984509 4.25584708 9.50962644 2.5 12.875 C-0.52915683 15.44978331 -2.20650771 15.74545844 -6.09375 15.484375 C-8 15 -8 15 -10.5 12.875 C-12.25584708 9.50962644 -12.63656938 7.73984509 -12 4 C-9.04906701 -0.67231057 -5.10537385 -1.0252595 0 0 Z " fill="#3FB8FF" transform="translate(76,304)"/>
<path d="M0 0 C0.53625 0.763125 1.0725 1.52625 1.625 2.3125 C6.4233627 7.74222622 12.45510821 8.71126815 19.29296875 10.15625 C23.52995562 11.47686928 23.52995562 11.47686928 25 14 C24.6875 17.6875 24.6875 17.6875 24 21 C21.45419771 20.26226157 18.91404391 19.51037917 16.375 18.75 C15.66214844 18.54503906 14.94929687 18.34007812 14.21484375 18.12890625 C8.99479972 16.54852595 4.102463 14.675862 0.625 10.25 C-0.33315962 6.80062538 -0.11908512 3.57255374 0 0 Z " fill="#BB99FF" transform="translate(193,519)"/>
<path d="M0 0 C2.4375 1.5 2.4375 1.5 4 4 C4.5149217 6.90813732 4.33536988 8.98167108 4 12 C2.40813918 14.20066025 1.53046141 14.90197996 -1.15625 15.3984375 C-2.31640625 15.38683594 -2.31640625 15.38683594 -3.5 15.375 C-4.2734375 15.38273437 -5.046875 15.39046875 -5.84375 15.3984375 C-8.54613385 14.89908396 -9.4175021 14.23236381 -11 12 C-11.61350778 8.94904237 -11.50241849 6.06589467 -11 3 C-8.12184191 -0.79916868 -4.49294484 -0.56161811 0 0 Z " fill="#3FB8FF" transform="translate(55,302)"/>
<path d="M0 0 C2.4375 0.9375 2.4375 0.9375 4 3 C4.62414135 6.80868071 5.0611908 10.50302238 2.75390625 13.7578125 C0.53527384 15.32913791 -0.79906814 15.40200932 -3.5 15.375 C-4.2734375 15.38273437 -5.046875 15.39046875 -5.84375 15.3984375 C-8.53046141 14.90197996 -9.40813918 14.20066025 -11 12 C-11.75471698 5.20754717 -11.75471698 5.20754717 -9.4375 1.5 C-6.0761612 -0.56851618 -3.88040089 -0.48505011 0 0 Z " fill="#3FB8FF" transform="translate(35,302)"/>
<path d="M0 0 C2.4375 1.5625 2.4375 1.5625 4 4 C4.55802097 7.90614682 4.58392818 10.05111671 2.5 13.4375 C-1.24892004 15.78057502 -3.61035762 15.48773804 -8 15 C-10.191985 13.41081088 -10.8969765 12.51233306 -11.43359375 9.84375 C-11.44402315 3.58611056 -11.44402315 3.58611056 -9.4375 0.9375 C-6.05217395 -0.36454848 -3.59663278 -0.4495791 0 0 Z " fill="#3FB8FF" transform="translate(67,320)"/>
<path d="M0 0 C2.4375 1.5625 2.4375 1.5625 4 4 C4.55802097 7.90614682 4.58392818 10.05111671 2.5 13.4375 C-1.24892004 15.78057502 -3.61035762 15.48773804 -8 15 C-10.191985 13.41081088 -10.8969765 12.51233306 -11.43359375 9.84375 C-11.44402315 3.58611056 -11.44402315 3.58611056 -9.4375 0.9375 C-6.05217395 -0.36454848 -3.59663278 -0.4495791 0 0 Z " fill="#3FB8FF" transform="translate(47,320)"/>
<path d="M0 0 C2.49128777 0.79643508 4.63649033 1.84141683 7 3 C8.32276056 3.37308631 9.65232077 3.73046415 11 4 C10.64950425 7.24208567 10.43778819 8.61527704 7.9375 10.8125 C7.298125 11.204375 6.65875 11.59625 6 12 C5.195625 11.525625 4.39125 11.05125 3.5625 10.5625 C-0.66939929 8.70640382 -4.43172078 8.29440022 -9 8 C-9.33 8.66 -9.66 9.32 -10 10 C-12 8 -12 8 -12.3125 5 C-12.209375 4.01 -12.10625 3.02 -12 2 C-7.94315698 -0.70456201 -4.76388103 -0.53900817 0 0 Z " fill="#BB99FF" transform="translate(214,509)"/>
<path d="M0 0 C0.66 0.33 1.32 0.66 2 1 C-5 10 -12 19 -19 28 C-22.26460973 26.19587357 -23.88929795 25.16605307 -26 22 C-25.53215088 21.61779297 -25.06430176 21.23558594 -24.58227539 20.84179688 C-12.09247647 10.65293093 -12.09247647 10.65293093 0 0 Z " fill="#FDF5F5" transform="translate(302,276)"/>
<path d="M0 0 C2.375 1.5625 2.375 1.5625 4 4 C4.5 7.5625 4.5 7.5625 4 11 C1.79803976 13.62541413 0.38026421 13.9445448 -3 14.4375 C-6 14 -6 14 -8.375 12.375 C-10.48706506 9.28813568 -10.61195145 7.6717087 -10 4 C-7.21921757 -0.06422047 -4.81255755 -0.80209293 0 0 Z " fill="#F7FCFF" transform="translate(107,244)"/>
<path d="M0 0 C3.4375 1 3.4375 1 5.4375 2.625 C6.87866288 6.04776185 6.29307966 8.44605372 5.4375 12 C3.4375 14 3.4375 14 -0.5 14.375 C-3.3990531 14.29081697 -4.25595876 14.24906476 -6.5625 12.375 C-7.85868989 9.296549 -8.04538863 7.31123632 -7.5625 4 C-5.27647022 0.43379354 -4.27192374 0 0 0 Z " fill="#F6FBFF" transform="translate(92.5625,290)"/>
<path d="M0 0 C3.75101166 0.8233928 5.23782674 2.57363438 7.5625 5.5625 C8.125 8.125 8.125 8.125 7.5625 10.5625 C5.62244287 13.14924284 4.11324585 14.33655298 1.125 15.5625 C-1.4375 15.5625 -1.4375 15.5625 -4.25 14.0625 C-6.4375 11.5625 -6.4375 11.5625 -7 8.0625 C-6.4375 4.5625 -6.4375 4.5625 -4.75 2.125 C-2.4375 0.5625 -2.4375 0.5625 0 0 Z " fill="#F5FBFF" transform="translate(83.4375,260.4375)"/>
<path d="M0 0 C2.375 1.625 2.375 1.625 4 4 C4.48746608 7.34262452 4.31565201 9.29442492 2.9375 12.375 C1 14 1 14 -2.4375 14.5 C-6 14 -6 14 -8.5 12.4375 C-10 10 -10 10 -9.9375 6.4375 C-8.31602426 0.49208897 -6.21911538 -0.88844505 0 0 Z " fill="#F5FBFF" transform="translate(34,256)"/>
<path d="M0 0 C1.9375 1 1.9375 1 3 3 C3.45971393 5.75828359 3.51618579 8.2470091 3 11 C0.91957003 13.46569478 -0.33716945 13.90057542 -3.5 14.375 C-6.62581925 13.90612711 -7.87191902 13.35608966 -10 11 C-11 7.5625 -11 7.5625 -11 4 C-8.19454211 -0.55886907 -5.07534236 -0.64595266 0 0 Z " fill="#F7FCFF" transform="translate(59,250)"/>
<path d="M0 0 C2.375 1.625 2.375 1.625 4 4 C4.5625 7 4.5625 7 4 10 C1.57904909 12.62846098 -0.04614692 13.81388233 -3.5625 14.5 C-6.88912957 13.81761445 -8.04078918 12.75740782 -10 10 C-10.61195145 6.3282913 -10.48706506 4.71186432 -8.375 1.625 C-5.28813568 -0.48706506 -3.6717087 -0.61195145 0 0 Z " fill="#F8FCFF" transform="translate(67,279)"/>
<path d="M0 0 C4 2 4 2 7 4 C5.40956621 9.08938811 2.2553049 12.87456643 -1 17 C-5.50884026 14.68116787 -7.93906776 11.93548431 -11 8 C-7.37 5.36 -3.74 2.72 0 0 Z " fill="#615BC4" transform="translate(275,299)"/>
<path d="M0 0 C1.9375 1 1.9375 1 3 3 C3.46000079 5.76000474 3.50420748 8.24404774 3 11 C1.4375 13.0625 1.4375 13.0625 -1 14 C-7.32727273 13.67272727 -7.32727273 13.67272727 -10 11 C-10.55239643 4.03980504 -10.55239643 4.03980504 -8.9375 1 C-5.86784865 -0.58433618 -3.38318857 -0.36248449 0 0 Z " fill="#F9FDFF" transform="translate(43,281)"/>
<path d="M0 0 C7.26 0 14.52 0 22 0 C22 0.33 22 0.66 22 1 C15.07 1 8.14 1 1 1 C1 16.51 1 32.02 1 48 C3.97 48 6.94 48 10 48 C10 50.64 10 53.28 10 56 C6.7 56 3.4 56 0 56 C0 37.52 0 19.04 0 0 Z " fill="#BA97FF" transform="translate(108,501)"/>
<path d="M0 0 C3.67956291 1.56232021 6.16515793 3.83584082 9.0625 6.5625 C12.66926164 9.91839843 16.32730378 13.12033503 20.1875 16.1875 C25.77383253 20.69027665 30.9706212 25.56366783 36.16674805 30.50854492 C40.67666863 34.79583751 45.29640366 38.92674406 50 43 C51.79612889 44.57826959 53.58854553 46.16078814 55.375 47.75 C56.20773438 48.48734375 57.04046875 49.2246875 57.8984375 49.984375 C60 52 60 52 62 55 C59.18648214 53.71104283 57.0674293 52.33731495 54.828125 50.20703125 C53.9613916 49.39057129 53.9613916 49.39057129 53.07714844 48.55761719 C52.47418945 47.98172852 51.87123047 47.40583984 51.25 46.8125 C49.99036407 45.62547304 48.7299535 44.43926755 47.46875 43.25390625 C46.86675781 42.68687988 46.26476562 42.11985352 45.64453125 41.53564453 C43.12171365 39.17986622 40.52419396 36.9173519 37.91015625 34.6640625 C35.63795489 32.68459874 33.41540128 30.6541683 31.1875 28.625 C27.81059018 25.57141133 24.36782868 22.65570795 20.8125 19.8125 C15.96727007 15.89315453 11.37299201 11.74653146 6.8125 7.5 C6.14001221 6.87585205 5.46752441 6.2517041 4.7746582 5.60864258 C4.15421631 5.02622803 3.53377441 4.44381348 2.89453125 3.84375 C2.33612549 3.31974609 1.77771973 2.79574219 1.20239258 2.25585938 C0 1 0 1 0 0 Z " fill="#305EC0" transform="translate(25,95)"/>
<path d="M0 0 C1.19534451 1.16119181 2.38529073 2.32847437 3.546875 3.5234375 C4.50554296 4.49756784 5.4955637 5.4419202 6.515625 6.3515625 C7.9375 7.75 7.9375 7.75 10 11 C9.90794088 14.19905446 9.03590964 16.98888442 8 20 C7.62875 21.175625 7.2575 22.35125 6.875 23.5625 C6.441875 24.7690625 6.441875 24.7690625 6 26 C5.34 26 4.68 26 4 26 C3.51875423 23.16700602 3.03995391 20.33363343 2.5625 17.5 C2.42779297 16.70851563 2.29308594 15.91703125 2.15429688 15.1015625 C1.31016983 10.07797716 0.59755977 5.05895259 0 0 Z " fill="#F7F2FF" transform="translate(565,323)"/>
<path d="M0 0 C1.77049689 -0.05410687 3.54146849 -0.09284119 5.3125 -0.125 C6.29863281 -0.14820313 7.28476563 -0.17140625 8.30078125 -0.1953125 C11 0 11 0 14 2 C13.6875 3.9375 13.6875 3.9375 13 6 C9.98509443 7.00496852 7.95818308 7.10335303 4.8125 7.0625 C3.46091797 7.04896484 3.46091797 7.04896484 2.08203125 7.03515625 C1.39496094 7.02355469 0.70789063 7.01195312 0 7 C0 4.69 0 2.38 0 0 Z " fill="#FBF9FF" transform="translate(118,517)"/>
<path d="M0 0 C1.77049689 -0.05410687 3.54146849 -0.09284119 5.3125 -0.125 C6.29863281 -0.14820313 7.28476563 -0.17140625 8.30078125 -0.1953125 C11 0 11 0 14 2 C12.25 5.875 12.25 5.875 10 7 C8.29297265 7.06996014 6.58331997 7.08440154 4.875 7.0625 C3.96492187 7.05347656 3.05484375 7.04445313 2.1171875 7.03515625 C1.41851562 7.02355469 0.71984375 7.01195312 0 7 C0 4.69 0 2.38 0 0 Z " fill="#FAF8FF" transform="translate(162,517)"/>
<path d="M0 0 C1.34173403 0.92543709 2.67320159 1.86577405 4 2.8125 C5.11375 3.59560547 5.11375 3.59560547 6.25 4.39453125 C6.8275 4.92433594 7.405 5.45414062 8 6 C8 6.99 8 7.98 8 9 C4.7 9.66 1.4 10.32 -2 11 C-2.99 9.35 -3.98 7.7 -5 6 C-3.35 4.02 -1.7 2.04 0 0 Z " fill="#FBF7F9" transform="translate(284,326)"/>
<path d="M0 0 C2.97 0 5.94 0 9 0 C9 2.64 9 5.28 9 8 C6.03 8 3.06 8 0 8 C0 5.36 0 2.72 0 0 Z " fill="#BB99FF" transform="translate(152,549)"/>
<path d="M0 0 C2.97 0 5.94 0 9 0 C9 2.64 9 5.28 9 8 C6.03 8 3.06 8 0 8 C0 5.36 0 2.72 0 0 Z " fill="#BB99FF" transform="translate(87,549)"/>
<path d="M0 0 C3.94139078 1.66751148 6.7892812 4.22710649 10 7 C8.84826645 9.46800047 7.95216435 11.04783565 6 13 C3.36 10.03 0.72 7.06 -2 4 C-1.34 2.68 -0.68 1.36 0 0 Z " fill="#F9F8FB" transform="translate(263,308)"/>
<path d="M0 0 C7.15801225 5.82628904 13.52591766 12.4382985 20 19 C19.67 19.99 19.34 20.98 19 22 C14.30588727 17.41561977 9.81268642 12.7407782 5.54296875 7.7578125 C4.28121617 6.32037286 2.93240069 4.95977503 1.5625 3.625 C0 2 0 2 0 0 Z " fill="#787CF8" transform="translate(140,181)"/>
<path d="M0 0 C5.74389224 -0.34463353 10.04518673 -0.34449896 15 3 C15.33 3.99 15.66 4.98 16 6 C10.72 4.68 5.44 3.36 0 2 C0 1.34 0 0.68 0 0 Z " fill="#F4EFFF" transform="translate(205,517)"/>
<path d="M0 0 C3.91939465 3.80411834 7.49102731 7.81576108 11 12 C10.01 13.485 10.01 13.485 9 15 C7.49428254 12.87885041 5.99531321 10.75346385 4.5 8.625 C4.07074219 8.02171875 3.64148438 7.4184375 3.19921875 6.796875 C0 2.2265625 0 2.2265625 0 0 Z " fill="#E6F1FC" transform="translate(248,320)"/>
<path d="M0 0 C1.65 0.33 3.3 0.66 5 1 C4.67 2.65 4.34 4.3 4 6 C2.35 5.67 0.7 5.34 -1 5 C-0.67 3.35 -0.34 1.7 0 0 Z " fill="#ECF8FF" transform="translate(70,308)"/>
<path d="M0 0 C1.65 0 3.3 0 5 0 C5 1.65 5 3.3 5 5 C3.125 5.625 3.125 5.625 1 6 C0.34 5.34 -0.32 4.68 -1 4 C-0.625 1.875 -0.625 1.875 0 0 Z " fill="#ECF8FF" transform="translate(61,325)"/>
<path d="M0 0 C1.65 0 3.3 0 5 0 C5 1.65 5 3.3 5 5 C3.125 5.625 3.125 5.625 1 6 C0.34 5.34 -0.32 4.68 -1 4 C-0.625 1.875 -0.625 1.875 0 0 Z " fill="#EDF8FF" transform="translate(41,325)"/>
<path d="M0 0 C1.65 0 3.3 0 5 0 C5 1.65 5 3.3 5 5 C3.125 5.625 3.125 5.625 1 6 C0.34 5.34 -0.32 4.68 -1 4 C-0.625 1.875 -0.625 1.875 0 0 Z " fill="#F0F9FF" transform="translate(49,307)"/>
<path d="M0 0 C1.65 0 3.3 0 5 0 C5.625 1.875 5.625 1.875 6 4 C5.34 4.66 4.68 5.32 4 6 C1.875 5.625 1.875 5.625 0 5 C0 3.35 0 1.7 0 0 Z " fill="#F0F9FF" transform="translate(29,307)"/>
<path d="M0 0 C4.63720719 3.27530896 8.68542782 6.30435607 12 11 C9 11 9 11 6.73828125 9.1015625 C5.93777344 8.28429687 5.13726562 7.46703125 4.3125 6.625 C3.50425781 5.81289062 2.69601563 5.00078125 1.86328125 4.1640625 C0 2 0 2 0 0 Z " fill="#5F7CE0" transform="translate(121,161)"/>
<path d="M0 0 C3.81936528 1.55603771 6.26044438 3.95604931 9 7 C9 7.66 9 8.32 9 9 C5.18063472 7.44396229 2.73955562 5.04395069 0 2 C0 1.34 0 0.68 0 0 Z " fill="#E7E7F6" transform="translate(243,290)"/>
<path d="M0 0 C0.66 0 1.32 0 2 0 C2.66 1.32 3.32 2.64 4 4 C2.02253397 4.73080266 0.01927511 5.39421747 -2 6 C-2.66 5.67 -3.32 5.34 -4 5 C-2.71937515 3.2925002 -1.38232443 1.62626404 0 0 Z " fill="#839DE1" transform="translate(278,333)"/>
<path d="M0 0 C0.515625 0.391875 1.03125 0.78375 1.5625 1.1875 C-2.26267513 3.57823445 -6.03415524 3.74716552 -10.4375 4.1875 C-8.53916534 0.39083068 -3.95241884 -1.31747295 0 0 Z " fill="#FFE1DF" transform="translate(191.4375,356.8125)"/>
<path d="M0 0 C3.92300272 1.82504909 6.73787272 4.18270826 10 7 C9.67 7.66 9.34 8.32 9 9 C5.51127585 7.83709195 4.90023136 6.86032391 2.8125 3.9375 C2.28269531 3.20402344 1.75289062 2.47054687 1.20703125 1.71484375 C0.80871094 1.14894531 0.41039062 0.58304688 0 0 Z " fill="#4C64CC" transform="translate(132,172)"/>
</svg>
